<svg width="65" height="65" viewBox="0 0 65 65" fill="none" xmlns="http://www.w3.org/2000/svg">
<g opacity="0.75">
<circle cx="32.418" cy="32.0767" r="30.5" stroke="white" stroke-width="3"/>
<path d="M29.938 24.5407V19.5007C29.938 18.1567 30.526 17.4007 32.038 17.4007C33.55 17.4007 34.138 18.1567 34.138 19.5007V24.5407H40.312C41.404 24.5407 42.412 25.1287 42.412 26.6407C42.412 28.1527 41.404 28.7407 40.312 28.7407H25.864V31.6387H40.312C41.446 31.6387 42.412 32.6047 42.412 33.7387V40.8367C42.412 41.9707 41.446 42.9367 40.312 42.9367H34.138V47.9767C34.138 49.3207 33.55 50.0767 32.038 50.0767C30.526 50.0767 29.938 49.3207 29.938 47.9767V42.9367H23.764C22.672 42.9367 21.664 42.3487 21.664 40.8367C21.664 39.3247 22.672 38.7367 23.764 38.7367H38.212V35.8387H23.764C22.63 35.8387 21.664 34.8727 21.664 33.7387V26.6407C21.664 25.5067 22.63 24.5407 23.764 24.5407H29.938Z" fill="white"/>
</g>
</svg>
