<svg width="20" height="13" viewBox="0 0 20 13" fill="none" xmlns="http://www.w3.org/2000/svg">
<path d="M5.62401 1.19271L6.34056 0.662374C6.56292 0.497796 6.83225 0.408968 7.10889 0.408968H13.5748C13.9227 0.408968 14.2647 0.49976 14.5668 0.672373L15.6354 1.28284C16.0123 1.49813 16.4886 1.41812 16.7745 1.09154C17.1049 0.713936 17.6845 0.671245 18.0226 1.04206C21.373 4.71677 19.588 10.1864 17.8452 11.4376C16.2881 12.5556 15.4159 10.0992 14.6112 9.43649C13.8579 8.81615 13.4278 8.92888 10.4298 8.92888C7.43172 8.92888 6.04364 8.72647 5.00227 10.3832C3.96091 12.0399 2.98172 13.9937 0.94633 8.17153C-0.537219 3.92789 2.0841 1.50979 3.97007 0.624006C4.25917 0.488225 4.59096 0.640327 4.71116 0.936242C4.85866 1.29934 5.30899 1.42587 5.62401 1.19271Z" fill="white"/>
<circle cx="14.5952" cy="5.03369" r="2.81299" fill="#0D0D0D"/>
<path d="M5.08984 3.87949C5.08984 3.79665 5.157 3.72949 5.23984 3.72949H5.89297C5.97581 3.72949 6.04297 3.79665 6.04297 3.87949V5.14869C6.04297 5.19309 6.0233 5.23522 5.98925 5.26372L5.66514 5.53499C5.60971 5.58139 5.52906 5.58165 5.47332 5.5356L5.1443 5.26374C5.10981 5.23525 5.08984 5.19285 5.08984 5.14811V3.87949Z" fill="#0D0D0D"/>
<path d="M7.50625 5.38867C7.58909 5.38867 7.65625 5.45583 7.65625 5.53867L7.65625 6.1918C7.65625 6.27464 7.58909 6.3418 7.50625 6.3418L6.23326 6.3418C6.19105 6.3418 6.15079 6.32401 6.12237 6.2928L5.78442 5.92177C5.72754 5.85933 5.73341 5.76226 5.7974 5.70713L6.12479 5.42504C6.15202 5.40158 6.18676 5.38867 6.2227 5.38867L7.50625 5.38867Z" fill="#0D0D0D"/>
<path d="M3.61387 5.38867C3.53102 5.38867 3.46387 5.45583 3.46387 5.53867L3.46387 6.1918C3.46387 6.27464 3.53102 6.3418 3.61387 6.3418L4.88686 6.3418C4.92907 6.3418 4.96933 6.32401 4.99775 6.2928L5.3357 5.92177C5.39257 5.85933 5.3867 5.76226 5.32272 5.70713L4.99533 5.42504C4.9681 5.40158 4.93336 5.38867 4.89742 5.38867L3.61387 5.38867Z" fill="#0D0D0D"/>
</svg>
