<svg width="194" height="45" viewBox="0 0 194 45" fill="none" xmlns="http://www.w3.org/2000/svg">
<g clip-path="url(#clip0_2318_11144)">
<mask id="mask0_2318_11144" style="mask-type:luminance" maskUnits="userSpaceOnUse" x="0" y="0" width="44" height="45">
<path d="M43.9841 0.625H0.234131V44.375H43.9841V0.625Z" fill="white"/>
</mask>
<g mask="url(#mask0_2318_11144)">
<path d="M35.0763 13.5503C33.9999 13.4033 32.9913 12.9404 32.1779 12.2202C31.3646 11.5 30.7831 10.5548 30.5071 9.50409C30.2311 8.45336 30.2729 7.34431 30.6271 6.31734C30.9815 5.29036 31.6324 4.39155 32.4976 3.73454C33.3628 3.07751 34.4034 2.69177 35.4878 2.62622C36.5721 2.56066 37.6516 2.81817 38.5896 3.36619C39.5276 3.91419 40.2821 4.72812 40.7576 5.70495C41.233 6.68176 41.408 7.7776 41.2606 8.85391C41.0618 10.2961 40.2989 11.6005 39.1395 12.4809C37.9801 13.3614 36.5189 13.7459 35.0763 13.5503ZM36.1984 5.34407C35.652 5.26895 35.0956 5.35756 34.5995 5.59874C34.1035 5.83991 33.6901 6.22281 33.4118 6.69896C33.1334 7.17511 33.0024 7.72306 33.0355 8.27364C33.0686 8.8242 33.2644 9.3526 33.5979 9.79194C33.9313 10.2313 34.3876 10.5618 34.909 10.7418C35.4304 10.9217 35.9934 10.9431 36.5269 10.803C37.0604 10.6629 37.5403 10.3677 37.906 9.95475C38.2716 9.54182 38.5066 9.02965 38.5813 8.48315C38.6798 7.75119 38.4844 7.01002 38.0379 6.42174C37.5914 5.83344 36.93 5.44597 36.1984 5.34407Z" fill="white"/>
<path d="M42.9518 18.2897C43.3629 20.5266 43.4114 22.8151 43.0951 25.0674C42.4675 29.645 40.383 33.8993 37.1503 37.2005C33.9174 40.5018 29.7079 42.6747 25.1443 43.3981C20.5808 44.1215 15.9055 43.3568 11.8102 41.2171C7.71494 39.0774 4.41713 35.6765 2.40461 31.5173C0.392077 27.358 -0.228262 22.6614 0.635325 18.1222C1.49891 13.5831 3.80056 9.44252 7.19981 6.31291C10.5991 3.1833 14.9154 1.23091 19.5103 0.744559C24.1051 0.258214 28.7345 1.26379 32.7136 3.61244L31.3394 5.93587C27.6735 3.77714 23.3834 2.92665 19.1711 3.52361C14.959 4.12058 11.0741 6.12961 8.15243 9.22195C5.23073 12.3143 3.44519 16.3069 3.08802 20.5461C2.73086 24.7854 3.82321 29.0204 6.18633 32.558C8.54946 36.0955 12.0434 38.7261 16.0964 40.0195C20.1493 41.3127 24.5211 41.1921 28.4966 39.6772C32.472 38.1623 35.8155 35.3429 37.9799 31.6803C40.1441 28.0177 41.0013 23.7289 40.4108 19.5158" fill="white"/>
</g>
<mask id="mask1_2318_11144" style="mask-type:luminance" maskUnits="userSpaceOnUse" x="62" y="3" width="126" height="39">
<path d="M187.066 3.125H62.0664V41.875H187.066V3.125Z" fill="white"/>
</mask>
<g mask="url(#mask1_2318_11144)">
<mask id="mask2_2318_11144" style="mask-type:luminance" maskUnits="userSpaceOnUse" x="62" y="3" width="126" height="34">
<path d="M187.066 3.125H62.0664V36.875H187.066V3.125Z" fill="white"/>
</mask>
<g mask="url(#mask2_2318_11144)">
<path d="M62.0664 12.7255H82.0872V3.125H84.6445V34.9356H82.0872V15.2331H64.6969V32.428H82.0872L79.5298 34.9356H62.0664V12.7255Z" fill="white"/>
<path d="M100.79 32.9232C95.4564 32.9232 91.5838 28.7677 91.5838 23.7526H111.458C111.239 15.8716 106.49 12.146 100.279 12.146C93.9219 12.146 88.8071 17.3045 88.8071 23.6809C88.8071 30.0574 93.7758 35.2159 100.79 35.2159C104.809 35.2159 107.44 33.4247 109.486 31.6336L107.805 29.8425C105.978 31.4186 104.005 32.9232 100.79 32.9232ZM100.206 14.5102C104.371 14.5102 107.951 16.8746 108.463 21.4599H91.8029C92.6066 17.3045 96.187 14.5102 100.206 14.5102Z" fill="white"/>
<path d="M122.493 34.9384H115.552V12.7283H122.493V19.463L129.362 12.7283H138.203V34.9384H131.262V19.463H122.493V34.9384Z" fill="white"/>
<path d="M148.433 20.9551H157.785C157.42 18.5908 155.374 17.5161 153.182 17.5161C151.502 17.5878 149.09 18.3043 148.433 20.9551ZM141.783 23.7493C141.783 17.1579 146.533 12.2144 153.547 12.2144C159.319 12.2144 164.58 15.9399 164.58 23.0329C164.58 23.6776 164.508 24.3225 164.434 25.0389H148.433C148.724 28.048 151.355 29.1944 153.402 29.1944C155.52 29.1944 156.835 27.9764 157.785 26.3285L163.484 29.6243C161.365 32.8483 158.004 35.3559 153.474 35.3559C147.337 35.2843 141.783 30.6273 141.783 23.7493Z" fill="white"/>
<path d="M178.534 5.99731V12.732H185.988V18.6786H178.534V28.7806H185.988V34.9421H171.593V18.6786H165.602L178.534 5.99731Z" fill="white"/>
</g>
</g>
</g>
<defs>
<clipPath id="clip0_2318_11144">
<rect width="193.75" height="45" fill="white" transform="translate(0.234131)"/>
</clipPath>
</defs>
</svg>
