<svg xmlns="http://www.w3.org/2000/svg" width="20" height="20" viewBox="0 0 20 20" fill="none">
<circle cx="10.1309" cy="9.68945" r="9.1875" stroke="white" stroke-width="0.5"/>
<path d="M10.1309 0.501953C11.7216 0.501953 13.1942 1.48945 14.2812 3.15332C15.3668 4.81494 16.0469 7.12491 16.0469 9.68945C16.0469 12.254 15.3668 14.564 14.2812 16.2256C13.1942 17.8895 11.7216 18.877 10.1309 18.877C8.54013 18.877 7.06756 17.8895 5.98047 16.2256C4.89489 14.564 4.21484 12.254 4.21484 9.68945C4.21484 7.12491 4.89489 4.81494 5.98047 3.15332C7.06756 1.48945 8.54013 0.501953 10.1309 0.501953Z" stroke="white" stroke-width="0.5"/>
<path d="M10.1309 0.501953C10.3507 0.501953 10.6212 0.670189 10.915 1.12891C11.2013 1.57597 11.4691 2.23902 11.6973 3.08105C12.1527 4.7621 12.4375 7.0989 12.4375 9.68945C12.4375 12.28 12.1527 14.6168 11.6973 16.2979C11.4691 17.1399 11.2013 17.8029 10.915 18.25C10.6212 18.7087 10.3507 18.877 10.1309 18.877C9.91106 18.877 9.64048 18.7087 9.34668 18.25C9.06037 17.8029 8.79259 17.1399 8.56445 16.2979C8.10906 14.6168 7.82422 12.28 7.82422 9.68945C7.82422 7.0989 8.10906 4.7621 8.56445 3.08105C8.79259 2.23902 9.06037 1.57597 9.34668 1.12891C9.64048 0.670189 9.91106 0.501953 10.1309 0.501953Z" stroke="white" stroke-width="0.5"/>
<path d="M19.3184 9.68945C19.3184 9.69847 19.3136 9.74584 19.2148 9.83008C19.1176 9.91288 18.959 10.0049 18.7314 10.0986C18.2786 10.2852 17.6084 10.4589 16.7617 10.6064C15.0719 10.9009 12.7271 11.084 10.1309 11.084C7.53459 11.084 5.1898 10.9009 3.5 10.6064C2.65331 10.4589 1.98308 10.2852 1.53027 10.0986C1.30273 10.0049 1.14411 9.91288 1.04687 9.83008C0.948095 9.74584 0.943359 9.69847 0.943359 9.68945C0.943359 9.68043 0.948095 9.63306 1.04687 9.54883C1.14411 9.46603 1.30273 9.37402 1.53027 9.28027C1.98308 9.09374 2.65331 8.92002 3.5 8.77246C5.1898 8.478 7.53459 8.29492 10.1309 8.29492C12.7271 8.29492 15.0719 8.478 16.7617 8.77246C17.6084 8.92002 18.2786 9.09374 18.7314 9.28027C18.959 9.37402 19.1176 9.46603 19.2148 9.54883C19.3136 9.63306 19.3184 9.68043 19.3184 9.68945Z" stroke="white" stroke-width="0.5"/>
<path d="M17.5684 4.4248C17.4938 4.48334 17.3682 4.5516 17.1826 4.62207C16.8139 4.76205 16.2651 4.89236 15.5703 5.00391C14.1847 5.22634 12.2615 5.36523 10.1309 5.36523C8.00021 5.36523 6.07697 5.22634 4.69141 5.00391C3.99663 4.89236 3.44785 4.76205 3.0791 4.62207C2.89349 4.5516 2.76796 4.48334 2.69336 4.4248C2.66261 4.40064 2.64785 4.38202 2.63965 4.37109C2.64785 4.36017 2.66261 4.34154 2.69336 4.31738C2.76796 4.25885 2.89349 4.19059 3.0791 4.12012C3.44785 3.98014 3.99663 3.84983 4.69141 3.73828C6.07697 3.51585 8.00021 3.37695 10.1309 3.37695C12.2615 3.37695 14.1847 3.51585 15.5703 3.73828C16.2651 3.84983 16.8139 3.98014 17.1826 4.12012C17.3682 4.19059 17.4938 4.25885 17.5684 4.31738C17.5991 4.34154 17.6139 4.36017 17.6221 4.37109C17.6139 4.38202 17.5991 4.40065 17.5684 4.4248Z" stroke="white" stroke-width="0.5"/>
<path d="M17.5684 15.1807C17.4938 15.2392 17.3682 15.3075 17.1826 15.3779C16.8139 15.5179 16.2651 15.6482 15.5703 15.7598C14.1847 15.9822 12.2615 16.1211 10.1309 16.1211C8.00021 16.1211 6.07697 15.9822 4.69141 15.7598C3.99663 15.6482 3.44785 15.5179 3.0791 15.3779C2.89349 15.3075 2.76796 15.2392 2.69336 15.1807C2.66261 15.1565 2.64785 15.1379 2.63965 15.127C2.64785 15.116 2.66261 15.0974 2.69336 15.0732C2.76796 15.0147 2.89349 14.9464 3.0791 14.876C3.44785 14.736 3.99663 14.6057 4.69141 14.4941C6.07697 14.2717 8.00021 14.1328 10.1309 14.1328C12.2615 14.1328 14.1847 14.2717 15.5703 14.4941C16.2651 14.6057 16.8139 14.736 17.1826 14.876C17.3682 14.9464 17.4938 15.0147 17.5684 15.0732C17.5991 15.0974 17.6139 15.116 17.6221 15.127C17.6139 15.1379 17.5991 15.1565 17.5684 15.1807Z" stroke="white" stroke-width="0.5"/>
</svg>