<svg width="567" height="160" viewBox="0 0 567 160" fill="none" xmlns="http://www.w3.org/2000/svg">
<path d="M8.30141 4.0374H4.52216V5.44002C4.52216 6.68679 3.97669 7.3881 2.57407 7.3881C1.17145 7.3881 0.625977 6.68679 0.625977 5.44002V0.141235H19.873V5.44002C19.873 6.68679 19.3276 7.3881 17.925 7.3881C16.5223 7.3881 15.9769 6.68679 15.9769 5.44002V4.0374H12.1976V28.5053C12.1976 29.7521 11.6521 30.4534 10.2495 30.4534C8.84688 30.4534 8.30141 29.7521 8.30141 28.5053V4.0374Z" fill="white"/>
<path d="M43.2393 17.2454H31.7846V28.5053C31.7846 29.7521 31.2392 30.4534 29.8365 30.4534C28.4339 30.4534 27.8885 29.7521 27.8885 28.5053V2.08932C27.8885 0.842545 28.4339 0.141235 29.8365 0.141235C31.2392 0.141235 31.7846 0.842545 31.7846 2.08932V13.3492H43.2393V2.08932C43.2393 0.842545 43.7848 0.141235 45.1874 0.141235C46.5901 0.141235 47.1355 0.842545 47.1355 2.08932V28.5053C47.1355 29.7521 46.5901 30.4534 45.1874 30.4534C43.7848 30.4534 43.2393 29.7521 43.2393 28.5053V17.2454Z" fill="white"/>
<path d="M59.0471 26.5572H72.4499C73.4629 26.5572 74.398 27.1027 74.398 28.5053C74.398 29.9079 73.4629 30.4534 72.4499 30.4534H55.1509V0.141235H72.4499C73.4629 0.141235 74.398 0.686698 74.398 2.08932C74.398 3.49194 73.4629 4.0374 72.4499 4.0374H59.0471V13.3492H64.7745C65.7875 13.3492 66.7226 13.8947 66.7226 15.2973C66.7226 16.6999 65.7875 17.2454 64.7745 17.2454H59.0471V26.5572Z" fill="white"/>
<path d="M124.637 30.4534H121.715C120.39 30.4534 119.611 30.1806 119.338 28.778H119.26C118.988 30.1806 118.208 30.4534 116.884 30.4534H113.962C112.598 30.4534 112.247 30.2196 111.585 29.0508L110.221 26.6741C109.715 25.8169 109.676 25.739 109.676 24.6871V2.08932C109.676 0.842545 110.221 0.141235 111.624 0.141235C113.027 0.141235 113.572 0.842545 113.572 2.08932V24.6871L114.624 26.5572H116.299L117.351 24.6871V12.4141C117.351 11.2063 117.897 10.1154 119.299 10.1154C120.702 10.1154 121.247 11.2063 121.247 12.4141V24.6871L122.299 26.5572H123.975L125.027 24.6871V2.08932C125.027 0.842545 125.572 0.141235 126.975 0.141235C128.377 0.141235 128.923 0.842545 128.923 2.08932V24.6871C128.923 25.739 128.884 25.8169 128.377 26.6741L127.014 29.0508C126.351 30.2196 126.001 30.4534 124.637 30.4534Z" fill="white"/>
<path d="M151.276 3.33609L155.172 11.0895C155.913 12.609 156.185 13.7388 156.185 15.4142C156.185 17.2843 155.679 18.4532 154.9 20.0506L151.315 27.2196C150.38 29.0897 148.822 30.4534 146.562 30.4534C144.302 30.4534 142.744 29.0897 141.809 27.2196L138.224 20.0506C137.445 18.4532 136.938 17.2843 136.938 15.4142C136.938 13.7388 137.211 12.609 137.951 11.0895L141.848 3.33609C142.783 1.50489 144.38 0.141235 146.562 0.141235C148.744 0.141235 150.341 1.50489 151.276 3.33609ZM151.393 12.2583L147.887 5.20625C147.575 4.58286 147.38 4.0374 146.562 4.0374C145.744 4.0374 145.549 4.58286 145.237 5.20625L141.731 12.2583C141.146 13.3882 140.835 14.1285 140.835 15.4142C140.835 16.4272 141.068 17.1285 141.497 17.9857L145.237 25.3884C145.51 25.9338 145.783 26.5572 146.562 26.5572C147.341 26.5572 147.614 25.9338 147.887 25.3884L151.627 17.9857C152.055 17.1285 152.289 16.4272 152.289 15.4142C152.289 14.1285 151.978 13.3882 151.393 12.2583Z" fill="white"/>
<path d="M168.097 14.0116V28.5053C168.097 29.7521 167.552 30.4534 166.149 30.4534C164.746 30.4534 164.201 29.7521 164.201 28.5053V0.141235H177.292C180.37 0.141235 183.448 2.32309 183.448 5.79067V8.47902C183.448 12.1414 180.409 14.0116 177.292 14.0116H173.707L182.474 26.5572C182.902 27.1416 183.448 27.8819 183.448 28.6222C183.448 29.7131 182.552 30.4534 181.461 30.4534C180.682 30.4534 180.175 29.9858 179.747 29.3625L168.993 14.0116H168.097ZM168.097 4.0374V10.1154H176.746C177.837 10.1154 179.552 10.0375 179.552 8.47902V5.79067C179.552 4.23221 177.954 4.0374 176.785 4.0374H168.097Z" fill="white"/>
<path d="M195.36 26.5572H208.762C209.775 26.5572 210.71 27.1027 210.71 28.5053C210.71 29.9079 209.775 30.4534 208.762 30.4534H191.463V2.08932C191.463 0.842545 192.009 0.141235 193.411 0.141235C194.814 0.141235 195.36 0.842545 195.36 2.08932V26.5572Z" fill="white"/>
<path d="M222.544 26.5572V4.0374H221.103C219.817 4.0374 218.726 3.56986 218.726 2.08932C218.726 0.686698 219.778 0.141235 220.986 0.141235H227.492C230.531 0.141235 232.051 1.38801 233.375 4.0374L236.804 10.8946C237.583 12.4921 237.973 13.622 237.973 15.4142C237.973 16.9727 237.544 18.2974 236.843 19.7L233.297 26.791C231.934 29.5573 230.181 30.4534 227.142 30.4534H220.674C219.661 30.4534 218.726 29.9079 218.726 28.5053C218.726 27.1027 219.661 26.5572 220.674 26.5572H222.544ZM226.44 4.0374V26.5572H227.181C228.817 26.5572 229.206 26.3624 229.908 24.9208L233.336 17.9857C233.765 17.0895 234.077 16.4272 234.077 15.4532C234.077 14.1285 233.648 13.3882 233.103 12.2583L229.869 5.67379C229.051 3.99844 228.7 4.0374 226.908 4.0374H226.44Z" fill="white"/>
<path d="M259.313 0.141235V2.08932L257.638 10.3881C257.365 11.7128 257.209 12.7258 255.456 12.7258C253.703 12.7258 253.547 11.7128 253.274 10.3881L251.599 2.08932V0.141235H259.313Z" fill="white"/>
<path d="M285.796 13.1934H280.108C279.329 13.1934 278.004 13.0375 278.004 14.2453C278.004 14.8687 278.472 15.1025 279.017 15.3363L288.368 19.5831C290.784 20.674 292.03 22.1935 292.03 24.8819C292.03 28.6611 289.459 30.4534 285.874 30.4534H280.108C278.16 30.4534 276.835 30.3755 275.433 29.2845C274.731 28.7391 273.718 28.0378 273.718 27.1027C273.718 26.0507 274.614 25.2325 275.666 25.2325C276.251 25.2325 276.679 25.4273 277.108 25.8949C277.77 26.6351 278.939 26.7131 280.108 26.7131H285.173C286.498 26.7131 288.29 26.8299 288.29 24.6481C288.29 23.752 287.199 23.1676 286.342 22.7779L277.537 18.7649C275.472 17.8298 274.264 16.622 274.264 14.2064C274.264 11.2453 276.601 9.45306 279.407 9.45306H285.796C287.861 9.45306 288.719 9.56995 290.121 10.7388C290.822 11.3232 291.602 11.7908 291.602 12.8427C291.602 13.8947 290.706 14.7129 289.693 14.7129C288.991 14.7129 288.563 14.4402 288.095 13.9337C287.472 13.2713 286.809 13.1934 285.796 13.1934Z" fill="white"/>
<path d="M561.867 52.6809V101.295H3.69531V52.6809H561.867Z" fill="#0059FF" fill-opacity="0.2" stroke="#0059FF"/>
<rect x="559.14" y="48.9534" width="6.45509" height="6.45509" fill="white" stroke="#0059FF"/>
<rect x="1.12598" y="48.9534" width="6.45509" height="6.45509" fill="white" stroke="#0059FF"/>
<rect x="1.12598" y="98.5676" width="6.45509" height="6.45509" fill="white" stroke="#0059FF"/>
<rect x="559.14" y="97.9597" width="6.45509" height="6.45509" fill="white" stroke="#0059FF"/>
<rect x="3.19531" y="105.523" width="559.172" height="51.0648" fill="#0059FF" fill-opacity="0.2"/>
<path d="M202.986 136.31H200.377C199.259 136.31 198.618 135.863 198.141 134.894L196.769 132.121C196.515 131.614 196.366 131.137 196.366 130.555C196.366 129.899 196.485 129.496 196.784 128.9L198.155 126.142C198.662 125.113 199.304 124.71 200.452 124.71H202.986C203.314 124.71 203.732 124.889 203.732 125.456C203.732 125.993 203.329 126.201 202.986 126.201H200.496C199.855 126.201 199.751 126.261 199.468 126.828L198.17 129.422C197.977 129.825 197.857 130.093 197.857 130.555C197.857 130.973 197.991 131.226 198.17 131.584L199.438 134.163C199.736 134.775 199.885 134.819 200.556 134.819H202.986C203.314 134.819 203.732 134.998 203.732 135.565C203.732 136.102 203.329 136.31 202.986 136.31Z" fill="white"/>
<path d="M214.075 125.933L215.566 128.9C215.85 129.482 215.954 129.914 215.954 130.555C215.954 131.271 215.76 131.718 215.462 132.329L214.09 135.073C213.733 135.789 213.136 136.31 212.271 136.31C211.407 136.31 210.81 135.789 210.452 135.073L209.081 132.329C208.782 131.718 208.588 131.271 208.588 130.555C208.588 129.914 208.693 129.482 208.976 128.9L210.467 125.933C210.825 125.232 211.436 124.71 212.271 124.71C213.106 124.71 213.718 125.232 214.075 125.933ZM214.12 129.347L212.778 126.649C212.659 126.41 212.584 126.201 212.271 126.201C211.958 126.201 211.884 126.41 211.764 126.649L210.422 129.347C210.199 129.78 210.08 130.063 210.08 130.555C210.08 130.943 210.169 131.211 210.333 131.539L211.764 134.372C211.869 134.581 211.973 134.819 212.271 134.819C212.57 134.819 212.674 134.581 212.778 134.372L214.21 131.539C214.374 131.211 214.463 130.943 214.463 130.555C214.463 130.063 214.344 129.78 214.12 129.347Z" fill="white"/>
<path d="M224.494 127.335L226.313 124.71H228.176V135.565C228.176 136.042 227.968 136.31 227.431 136.31C226.894 136.31 226.685 136.042 226.685 135.565V126.768H226.656L225.239 128.87V129.109C225.239 129.571 225.06 130.003 224.494 130.003C223.957 130.003 223.748 129.571 223.748 129.109V128.87L222.332 126.768H222.302V135.565C222.302 136.042 222.093 136.31 221.556 136.31C221.02 136.31 220.811 136.042 220.811 135.565V124.71H222.675L224.494 127.335Z" fill="white"/>
<path d="M236.716 127.335L238.535 124.71H240.399V135.565C240.399 136.042 240.19 136.31 239.653 136.31C239.116 136.31 238.908 136.042 238.908 135.565V126.768H238.878L237.461 128.87V129.109C237.461 129.571 237.282 130.003 236.716 130.003C236.179 130.003 235.97 129.571 235.97 129.109V128.87L234.554 126.768H234.524V135.565C234.524 136.042 234.315 136.31 233.779 136.31C233.242 136.31 233.033 136.042 233.033 135.565V124.71H234.897L236.716 127.335Z" fill="white"/>
<path d="M250.205 136.31H247.671C246.925 136.31 246.344 136.132 245.822 135.55C245.33 134.998 245.255 134.462 245.255 133.776V125.456C245.255 124.979 245.464 124.71 246.001 124.71C246.538 124.71 246.746 124.979 246.746 125.456V133.776C246.746 134.611 247 134.819 247.671 134.819H250.205C250.876 134.819 251.13 134.611 251.13 133.776V125.456C251.13 124.979 251.339 124.71 251.875 124.71C252.412 124.71 252.621 124.979 252.621 125.456V133.776C252.621 134.462 252.546 134.998 252.054 135.55C251.533 136.132 250.951 136.31 250.205 136.31Z" fill="white"/>
<path d="M263.352 133.761L263.367 125.471C263.367 124.994 263.576 124.725 264.113 124.725C264.649 124.725 264.858 124.994 264.858 125.471V136.325H262.89L258.998 127.379V127.364H258.969V135.565C258.969 136.042 258.76 136.31 258.223 136.31C257.686 136.31 257.478 136.042 257.478 135.565V124.71H259.446L263.337 133.761H263.322H263.352Z" fill="white"/>
<path d="M274.128 126.201V134.819H276.32C276.708 134.819 277.065 135.028 277.065 135.565C277.065 136.102 276.708 136.31 276.32 136.31H270.445C270.058 136.31 269.7 136.102 269.7 135.565C269.7 135.028 270.058 134.819 270.445 134.819H272.637V126.201H270.445C270.058 126.201 269.7 125.993 269.7 125.456C269.7 124.919 270.058 124.71 270.445 124.71H276.32C276.708 124.71 277.065 124.919 277.065 125.456C277.065 125.993 276.708 126.201 276.32 126.201H274.128Z" fill="white"/>
<path d="M284.859 126.201H283.413V126.738C283.413 127.215 283.204 127.484 282.668 127.484C282.131 127.484 281.922 127.215 281.922 126.738V124.71H289.288V126.738C289.288 127.215 289.079 127.484 288.542 127.484C288.005 127.484 287.797 127.215 287.797 126.738V126.201H286.35V135.565C286.35 136.042 286.142 136.31 285.605 136.31C285.068 136.31 284.859 136.042 284.859 135.565V126.201Z" fill="white"/>
<path d="M298.573 130.794V135.565C298.573 136.042 298.364 136.31 297.827 136.31C297.29 136.31 297.082 136.042 297.082 135.565V130.794L294.144 126.977V125.456C294.144 124.979 294.353 124.71 294.89 124.71C295.427 124.71 295.635 124.979 295.635 125.456V126.47L297.827 129.318L300.019 126.47V125.456C300.019 124.979 300.228 124.71 300.765 124.71C301.301 124.71 301.51 124.979 301.51 125.456V126.977L298.573 130.794Z" fill="white"/>
<path d="M308.305 129.616H311.794C312.405 129.616 312.689 129.854 312.689 130.525C312.689 131.196 312.405 131.435 311.794 131.435H308.305C307.694 131.435 307.41 131.196 307.41 130.525C307.41 129.854 307.694 129.616 308.305 129.616Z" fill="white"/>
<path d="M320.08 131.927V135.565C320.08 136.042 319.871 136.31 319.334 136.31C318.798 136.31 318.589 136.042 318.589 135.565V124.71H323.539C324.225 124.71 324.717 124.815 325.254 125.322C325.895 125.918 325.955 126.47 325.955 127.275V129.303C325.955 130.063 325.895 130.6 325.343 131.211C324.762 131.867 324.15 131.927 323.345 131.927H320.08ZM320.08 126.201V130.436H323.39C324.27 130.436 324.464 130.212 324.464 129.362V127.275C324.464 126.425 324.27 126.201 323.39 126.201H320.08Z" fill="white"/>
<path d="M336.298 125.933L337.789 128.9C338.072 129.482 338.177 129.914 338.177 130.555C338.177 131.271 337.983 131.718 337.685 132.329L336.313 135.073C335.955 135.789 335.359 136.31 334.494 136.31C333.629 136.31 333.033 135.789 332.675 135.073L331.303 132.329C331.005 131.718 330.811 131.271 330.811 130.555C330.811 129.914 330.916 129.482 331.199 128.9L332.69 125.933C333.048 125.232 333.659 124.71 334.494 124.71C335.329 124.71 335.94 125.232 336.298 125.933ZM336.343 129.347L335.001 126.649C334.882 126.41 334.807 126.201 334.494 126.201C334.181 126.201 334.106 126.41 333.987 126.649L332.645 129.347C332.422 129.78 332.302 130.063 332.302 130.555C332.302 130.943 332.392 131.211 332.556 131.539L333.987 134.372C334.091 134.581 334.196 134.819 334.494 134.819C334.792 134.819 334.897 134.581 335.001 134.372L336.432 131.539C336.596 131.211 336.686 130.943 336.686 130.555C336.686 130.063 336.567 129.78 336.343 129.347Z" fill="white"/>
<path d="M348.759 136.31H347.641C347.134 136.31 346.836 136.206 346.731 135.669H346.701C346.597 136.206 346.299 136.31 345.792 136.31H344.674C344.152 136.31 344.018 136.221 343.764 135.774L343.242 134.864C343.048 134.536 343.034 134.506 343.034 134.104V125.456C343.034 124.979 343.242 124.71 343.779 124.71C344.316 124.71 344.525 124.979 344.525 125.456V134.104L344.927 134.819H345.568L345.971 134.104V129.407C345.971 128.945 346.18 128.527 346.716 128.527C347.253 128.527 347.462 128.945 347.462 129.407V134.104L347.864 134.819H348.506L348.908 134.104V125.456C348.908 124.979 349.117 124.71 349.654 124.71C350.19 124.71 350.399 124.979 350.399 125.456V134.104C350.399 134.506 350.384 134.536 350.19 134.864L349.669 135.774C349.415 136.221 349.281 136.31 348.759 136.31Z" fill="white"/>
<path d="M356.747 134.819H361.876C362.264 134.819 362.621 135.028 362.621 135.565C362.621 136.102 362.264 136.31 361.876 136.31H355.256V124.71H361.876C362.264 124.71 362.621 124.919 362.621 125.456C362.621 125.993 362.264 126.201 361.876 126.201H356.747V129.765H358.939C359.326 129.765 359.684 129.974 359.684 130.51C359.684 131.047 359.326 131.256 358.939 131.256H356.747V134.819Z" fill="white"/>
<path d="M368.969 130.018V135.565C368.969 136.042 368.76 136.31 368.224 136.31C367.687 136.31 367.478 136.042 367.478 135.565V124.71H372.488C373.666 124.71 374.844 125.545 374.844 126.872V127.901C374.844 129.303 373.681 130.018 372.488 130.018H371.116L374.471 134.819C374.635 135.043 374.844 135.326 374.844 135.61C374.844 136.027 374.501 136.31 374.083 136.31C373.785 136.31 373.591 136.132 373.427 135.893L369.312 130.018H368.969ZM368.969 126.201V128.527H372.279C372.697 128.527 373.353 128.498 373.353 127.901V126.872C373.353 126.276 372.741 126.201 372.294 126.201H368.969Z" fill="white"/>
<path d="M381.191 134.819H386.32C386.708 134.819 387.066 135.028 387.066 135.565C387.066 136.102 386.708 136.31 386.32 136.31H379.7V124.71H386.32C386.708 124.71 387.066 124.919 387.066 125.456C387.066 125.993 386.708 126.201 386.32 126.201H381.191V129.765H383.383C383.771 129.765 384.129 129.974 384.129 130.51C384.129 131.047 383.771 131.256 383.383 131.256H381.191V134.819Z" fill="white"/>
<path d="M393.384 134.819V126.201H392.832C392.34 126.201 391.923 126.022 391.923 125.456C391.923 124.919 392.325 124.71 392.787 124.71H395.277C396.44 124.71 397.022 125.187 397.529 126.201L398.841 128.826C399.139 129.437 399.288 129.869 399.288 130.555C399.288 131.152 399.124 131.658 398.856 132.195L397.499 134.909C396.977 135.968 396.306 136.31 395.143 136.31H392.668C392.28 136.31 391.923 136.102 391.923 135.565C391.923 135.028 392.28 134.819 392.668 134.819H393.384ZM394.875 126.201V134.819H395.158C395.784 134.819 395.933 134.745 396.202 134.193L397.514 131.539C397.678 131.196 397.797 130.943 397.797 130.57C397.797 130.063 397.633 129.78 397.424 129.347L396.187 126.828C395.874 126.186 395.74 126.201 395.054 126.201H394.875Z" fill="white"/>
<rect x="164.375" y="121.327" width="19.4568" height="19.4568" rx="5" fill="white"/>
<path d="M168.631 132.17L171.975 135.109L179.577 127.001" stroke="#0E2041" stroke-width="3"/>
<mask id="path-11-outside-1_24_498" maskUnits="userSpaceOnUse" x="13.2002" y="58.0417" width="539" height="34" fill="black">
<rect fill="white" x="13.2002" y="58.0417" width="539" height="34"/>
<path d="M18.3011 86.8457H32.4081C33.4743 86.8457 34.4585 87.4198 34.4585 88.8961C34.4585 90.3724 33.4743 90.9466 32.4081 90.9466H14.2002V61.0922C14.2002 59.7799 14.7743 59.0417 16.2506 59.0417C17.7269 59.0417 18.3011 59.7799 18.3011 61.0922V86.8457Z"/>
<path d="M42.8951 88.8961L50.9328 61.1332C51.2609 60.026 51.712 59.0417 53.0243 59.0417C54.3776 59.0417 54.8697 60.067 55.1567 61.1332L63.0714 88.8961C63.3585 89.8803 62.2512 90.9466 61.103 90.9466C59.8317 90.9466 59.1756 89.8803 58.8885 88.8961L57.3712 83.9751H48.6363L47.078 88.8961C46.7909 89.8803 46.1348 90.9466 44.8635 90.9466C43.7153 90.9466 42.608 89.8803 42.8951 88.8961ZM56.2229 79.8742L53.0653 68.7608H52.9833L49.7846 79.8742H56.2229Z"/>
<path d="M75.6909 73.6409V88.8961C75.6909 90.2084 75.1168 90.9466 73.6404 90.9466C72.1641 90.9466 71.59 90.2084 71.59 88.8961V59.0417H85.3689C88.6086 59.0417 91.8483 61.3382 91.8483 64.988V67.8176C91.8483 71.6724 88.6497 73.6409 85.3689 73.6409H81.5961L90.8231 86.8457C91.2742 87.4608 91.8483 88.24 91.8483 89.0191C91.8483 90.1674 90.9051 90.9466 89.7569 90.9466C88.9367 90.9466 88.4036 90.4544 87.9525 89.7983L76.6341 73.6409H75.6909ZM75.6909 63.1426V69.54H84.7948C85.9431 69.54 87.7475 69.458 87.7475 67.8176V64.988C87.7475 63.3477 86.0661 63.1426 84.8358 63.1426H75.6909Z"/>
<path d="M116.442 80.5303H112.465C111.398 80.5303 110.414 79.9562 110.414 78.4799C110.414 77.0036 111.398 76.4295 112.465 76.4295H120.543V84.5082C120.543 88.486 117.878 90.9466 113.982 90.9466H106.928C105.042 90.9466 103.648 90.6185 102.212 89.3062C100.572 87.8299 100.285 86.3126 100.285 84.2621V74.0099C100.285 71.3854 100.859 70.0321 102.417 68.0227L107.256 61.8303C108.897 59.7389 110.332 59.0417 112.998 59.0417H118.493C119.559 59.0417 120.543 59.6159 120.543 61.0922C120.543 62.5685 119.559 63.1426 118.493 63.1426H113.572C111.316 63.1426 111.48 63.1016 110.127 64.824L105.657 70.5242C104.386 72.1235 104.386 73.8459 104.386 75.8553V83.893C104.386 86.1485 104.878 86.8457 107.215 86.8457H113.736C115.212 86.8457 116.442 86.5176 116.442 84.7132V80.5303Z"/>
<path d="M133.081 86.8457H147.188C148.254 86.8457 149.238 87.4198 149.238 88.8961C149.238 90.3724 148.254 90.9466 147.188 90.9466H128.98V59.0417H147.188C148.254 59.0417 149.238 59.6159 149.238 61.0922C149.238 62.5685 148.254 63.1426 147.188 63.1426H133.081V72.9437H139.109C140.175 72.9437 141.159 73.5178 141.159 74.9942C141.159 76.4705 140.175 77.0446 139.109 77.0446H133.081V86.8457Z"/>
<path d="M162.391 64.824L176.498 82.9088C177.318 83.9751 177.933 84.9183 177.933 86.3126C177.933 89.3882 175.596 90.9466 172.766 90.9466H163.744C162.186 90.9466 160.832 90.6595 159.602 89.6343C158.495 88.7321 157.675 87.2558 157.675 85.8205C157.675 84.5082 158.413 83.3599 159.848 83.3599C161.037 83.3599 161.776 84.3441 161.776 85.4514C161.776 86.6816 162.432 86.8457 163.58 86.8457H172.479C172.807 86.8457 173.832 86.9687 173.832 86.3536C173.832 86.0255 173.258 85.4104 173.094 85.1643L159.028 67.0795C158.167 65.9722 157.675 65.1521 157.675 63.7167C157.675 62.0764 158.454 60.6821 159.848 59.7799C160.996 59.0417 161.94 59.0417 163.252 59.0417H171.946C173.504 59.0417 174.816 59.3698 176.006 60.395C177.072 61.3382 177.933 62.8556 177.933 64.2909C177.933 65.6031 177.277 66.6694 175.801 66.6694C174.57 66.6694 173.832 65.8902 173.832 64.742C173.832 63.3477 173.135 63.1426 171.864 63.1426H163.17C162.719 63.1426 161.776 63.0196 161.776 63.7167C161.776 64.0858 162.227 64.5779 162.391 64.824Z"/>
<path d="M194.448 63.1426H190.471V64.6189C190.471 65.9312 189.896 66.6694 188.42 66.6694C186.944 66.6694 186.37 65.9312 186.37 64.6189V59.0417H206.628V64.6189C206.628 65.9312 206.054 66.6694 204.578 66.6694C203.101 66.6694 202.527 65.9312 202.527 64.6189V63.1426H198.549V88.8961C198.549 90.2084 197.975 90.9466 196.499 90.9466C195.022 90.9466 194.448 90.2084 194.448 88.8961V63.1426Z"/>
<path d="M247.778 86.8457V63.1426H246.261C244.908 63.1426 243.759 62.6505 243.759 61.0922C243.759 59.6159 244.867 59.0417 246.138 59.0417H252.986C256.185 59.0417 257.784 60.354 259.179 63.1426L262.788 70.3602C263.608 72.0415 264.018 73.2308 264.018 75.1172C264.018 76.7575 263.567 78.1518 262.829 79.6281L259.097 87.0917C257.661 90.0034 255.816 90.9466 252.617 90.9466H245.81C244.744 90.9466 243.759 90.3724 243.759 88.8961C243.759 87.4198 244.744 86.8457 245.81 86.8457H247.778ZM251.879 63.1426V86.8457H252.658C254.381 86.8457 254.791 86.6406 255.529 85.1233L259.138 77.8238C259.589 76.8806 259.917 76.1834 259.917 75.1582C259.917 73.7639 259.466 72.9847 258.892 71.7955L255.488 64.865C254.627 63.1016 254.258 63.1426 252.371 63.1426H251.879Z"/>
<path d="M272.454 88.8961L280.492 61.1332C280.82 60.026 281.271 59.0417 282.584 59.0417C283.937 59.0417 284.429 60.067 284.716 61.1332L292.631 88.8961C292.918 89.8803 291.811 90.9466 290.662 90.9466C289.391 90.9466 288.735 89.8803 288.448 88.8961L286.93 83.9751H278.196L276.637 88.8961C276.35 89.8803 275.694 90.9466 274.423 90.9466C273.275 90.9466 272.167 89.8803 272.454 88.8961ZM285.782 79.8742L282.625 68.7608H282.543L279.344 79.8742H285.782Z"/>
<path d="M309.228 63.1426H305.25V64.6189C305.25 65.9312 304.676 66.6694 303.2 66.6694C301.723 66.6694 301.149 65.9312 301.149 64.6189V59.0417H321.408V64.6189C321.408 65.9312 320.833 66.6694 319.357 66.6694C317.881 66.6694 317.307 65.9312 317.307 64.6189V63.1426H313.329V88.8961C313.329 90.2084 312.755 90.9466 311.278 90.9466C309.802 90.9466 309.228 90.2084 309.228 88.8961V63.1426Z"/>
<path d="M329.844 88.8961L337.882 61.1332C338.21 60.026 338.661 59.0417 339.973 59.0417C341.327 59.0417 341.819 60.067 342.106 61.1332L350.021 88.8961C350.308 89.8803 349.2 90.9466 348.052 90.9466C346.781 90.9466 346.125 89.8803 345.838 88.8961L344.32 83.9751H335.585L334.027 88.8961C333.74 89.8803 333.084 90.9466 331.813 90.9466C330.664 90.9466 329.557 89.8803 329.844 88.8961ZM343.172 79.8742L340.014 68.7608H339.932L336.734 79.8742H343.172Z"/>
<path d="M405.442 90.9466H398.265C395.19 90.9466 393.426 89.7163 392.114 87.0507L388.341 79.4231C387.644 78.0288 387.234 76.7165 387.234 75.1172C387.234 73.3128 387.562 72.2056 388.382 70.5652L392.155 62.9786C393.549 60.149 395.313 59.0417 398.47 59.0417H405.442C406.344 59.0417 407.492 59.5339 407.492 61.0922C407.492 62.5685 406.385 63.1426 405.442 63.1426H398.593C396.83 63.1426 396.543 63.3067 395.764 64.865L392.196 72.0005C391.663 73.1077 391.335 73.8459 391.335 75.1172C391.335 76.2654 391.704 76.9626 392.196 77.9468L395.682 85.0413C396.502 86.7227 396.912 86.8457 398.757 86.8457H405.442C406.344 86.8457 407.492 87.3378 407.492 88.8961C407.492 90.3724 406.385 90.9466 405.442 90.9466Z"/>
<path d="M420.03 86.8457H434.137C435.203 86.8457 436.187 87.4198 436.187 88.8961C436.187 90.3724 435.203 90.9466 434.137 90.9466H415.929V59.0417H434.137C435.203 59.0417 436.187 59.6159 436.187 61.0922C436.187 62.5685 435.203 63.1426 434.137 63.1426H420.03V72.9437H426.058C427.124 72.9437 428.108 73.5178 428.108 74.9942C428.108 76.4705 427.124 77.0446 426.058 77.0446H420.03V86.8457Z"/>
<path d="M460.781 83.9341L460.822 61.1332C460.822 59.8209 461.396 59.0828 462.873 59.0828C464.349 59.0828 464.923 59.8209 464.923 61.1332V90.9876H459.51L448.807 66.3823V66.3413H448.725V88.8961C448.725 90.2084 448.151 90.9466 446.674 90.9466C445.198 90.9466 444.624 90.2084 444.624 88.8961V59.0417H450.037L460.74 83.9341H460.699H460.781Z"/>
<path d="M481.397 63.1426H477.42V64.6189C477.42 65.9312 476.845 66.6694 475.369 66.6694C473.893 66.6694 473.319 65.9312 473.319 64.6189V59.0417H493.577V64.6189C493.577 65.9312 493.003 66.6694 491.527 66.6694C490.05 66.6694 489.476 65.9312 489.476 64.6189V63.1426H485.498V88.8961C485.498 90.2084 484.924 90.9466 483.448 90.9466C481.972 90.9466 481.397 90.2084 481.397 88.8961V63.1426Z"/>
<path d="M506.115 86.8457H520.221C521.288 86.8457 522.272 87.4198 522.272 88.8961C522.272 90.3724 521.288 90.9466 520.221 90.9466H502.014V59.0417H520.221C521.288 59.0417 522.272 59.6159 522.272 61.0922C522.272 62.5685 521.288 63.1426 520.221 63.1426H506.115V72.9437H512.143C513.209 72.9437 514.193 73.5178 514.193 74.9942C514.193 76.4705 513.209 77.0446 512.143 77.0446H506.115V86.8457Z"/>
<path d="M534.809 73.6409V88.8961C534.809 90.2084 534.235 90.9466 532.759 90.9466C531.283 90.9466 530.709 90.2084 530.709 88.8961V59.0417H544.487C547.727 59.0417 550.967 61.3382 550.967 64.988V67.8176C550.967 71.6724 547.768 73.6409 544.487 73.6409H540.715L549.942 86.8457C550.393 87.4608 550.967 88.24 550.967 89.0191C550.967 90.1674 550.024 90.9466 548.875 90.9466C548.055 90.9466 547.522 90.4544 547.071 89.7983L535.753 73.6409H534.809ZM534.809 63.1426V69.54H543.913C545.062 69.54 546.866 69.458 546.866 67.8176V64.988C546.866 63.3477 545.185 63.1426 543.954 63.1426H534.809Z"/>
</mask>
<path d="M18.3011 86.8457H32.4081C33.4743 86.8457 34.4585 87.4198 34.4585 88.8961C34.4585 90.3724 33.4743 90.9466 32.4081 90.9466H14.2002V61.0922C14.2002 59.7799 14.7743 59.0417 16.2506 59.0417C17.7269 59.0417 18.3011 59.7799 18.3011 61.0922V86.8457Z" fill="#00DDFF"/>
<path d="M42.8951 88.8961L50.9328 61.1332C51.2609 60.026 51.712 59.0417 53.0243 59.0417C54.3776 59.0417 54.8697 60.067 55.1567 61.1332L63.0714 88.8961C63.3585 89.8803 62.2512 90.9466 61.103 90.9466C59.8317 90.9466 59.1756 89.8803 58.8885 88.8961L57.3712 83.9751H48.6363L47.078 88.8961C46.7909 89.8803 46.1348 90.9466 44.8635 90.9466C43.7153 90.9466 42.608 89.8803 42.8951 88.8961ZM56.2229 79.8742L53.0653 68.7608H52.9833L49.7846 79.8742H56.2229Z" fill="#00DDFF"/>
<path d="M75.6909 73.6409V88.8961C75.6909 90.2084 75.1168 90.9466 73.6404 90.9466C72.1641 90.9466 71.59 90.2084 71.59 88.8961V59.0417H85.3689C88.6086 59.0417 91.8483 61.3382 91.8483 64.988V67.8176C91.8483 71.6724 88.6497 73.6409 85.3689 73.6409H81.5961L90.8231 86.8457C91.2742 87.4608 91.8483 88.24 91.8483 89.0191C91.8483 90.1674 90.9051 90.9466 89.7569 90.9466C88.9367 90.9466 88.4036 90.4544 87.9525 89.7983L76.6341 73.6409H75.6909ZM75.6909 63.1426V69.54H84.7948C85.9431 69.54 87.7475 69.458 87.7475 67.8176V64.988C87.7475 63.3477 86.0661 63.1426 84.8358 63.1426H75.6909Z" fill="#00DDFF"/>
<path d="M116.442 80.5303H112.465C111.398 80.5303 110.414 79.9562 110.414 78.4799C110.414 77.0036 111.398 76.4295 112.465 76.4295H120.543V84.5082C120.543 88.486 117.878 90.9466 113.982 90.9466H106.928C105.042 90.9466 103.648 90.6185 102.212 89.3062C100.572 87.8299 100.285 86.3126 100.285 84.2621V74.0099C100.285 71.3854 100.859 70.0321 102.417 68.0227L107.256 61.8303C108.897 59.7389 110.332 59.0417 112.998 59.0417H118.493C119.559 59.0417 120.543 59.6159 120.543 61.0922C120.543 62.5685 119.559 63.1426 118.493 63.1426H113.572C111.316 63.1426 111.48 63.1016 110.127 64.824L105.657 70.5242C104.386 72.1235 104.386 73.8459 104.386 75.8553V83.893C104.386 86.1485 104.878 86.8457 107.215 86.8457H113.736C115.212 86.8457 116.442 86.5176 116.442 84.7132V80.5303Z" fill="#00DDFF"/>
<path d="M133.081 86.8457H147.188C148.254 86.8457 149.238 87.4198 149.238 88.8961C149.238 90.3724 148.254 90.9466 147.188 90.9466H128.98V59.0417H147.188C148.254 59.0417 149.238 59.6159 149.238 61.0922C149.238 62.5685 148.254 63.1426 147.188 63.1426H133.081V72.9437H139.109C140.175 72.9437 141.159 73.5178 141.159 74.9942C141.159 76.4705 140.175 77.0446 139.109 77.0446H133.081V86.8457Z" fill="#00DDFF"/>
<path d="M162.391 64.824L176.498 82.9088C177.318 83.9751 177.933 84.9183 177.933 86.3126C177.933 89.3882 175.596 90.9466 172.766 90.9466H163.744C162.186 90.9466 160.832 90.6595 159.602 89.6343C158.495 88.7321 157.675 87.2558 157.675 85.8205C157.675 84.5082 158.413 83.3599 159.848 83.3599C161.037 83.3599 161.776 84.3441 161.776 85.4514C161.776 86.6816 162.432 86.8457 163.58 86.8457H172.479C172.807 86.8457 173.832 86.9687 173.832 86.3536C173.832 86.0255 173.258 85.4104 173.094 85.1643L159.028 67.0795C158.167 65.9722 157.675 65.1521 157.675 63.7167C157.675 62.0764 158.454 60.6821 159.848 59.7799C160.996 59.0417 161.94 59.0417 163.252 59.0417H171.946C173.504 59.0417 174.816 59.3698 176.006 60.395C177.072 61.3382 177.933 62.8556 177.933 64.2909C177.933 65.6031 177.277 66.6694 175.801 66.6694C174.57 66.6694 173.832 65.8902 173.832 64.742C173.832 63.3477 173.135 63.1426 171.864 63.1426H163.17C162.719 63.1426 161.776 63.0196 161.776 63.7167C161.776 64.0858 162.227 64.5779 162.391 64.824Z" fill="#00DDFF"/>
<path d="M194.448 63.1426H190.471V64.6189C190.471 65.9312 189.896 66.6694 188.42 66.6694C186.944 66.6694 186.37 65.9312 186.37 64.6189V59.0417H206.628V64.6189C206.628 65.9312 206.054 66.6694 204.578 66.6694C203.101 66.6694 202.527 65.9312 202.527 64.6189V63.1426H198.549V88.8961C198.549 90.2084 197.975 90.9466 196.499 90.9466C195.022 90.9466 194.448 90.2084 194.448 88.8961V63.1426Z" fill="#00DDFF"/>
<path d="M247.778 86.8457V63.1426H246.261C244.908 63.1426 243.759 62.6505 243.759 61.0922C243.759 59.6159 244.867 59.0417 246.138 59.0417H252.986C256.185 59.0417 257.784 60.354 259.179 63.1426L262.788 70.3602C263.608 72.0415 264.018 73.2308 264.018 75.1172C264.018 76.7575 263.567 78.1518 262.829 79.6281L259.097 87.0917C257.661 90.0034 255.816 90.9466 252.617 90.9466H245.81C244.744 90.9466 243.759 90.3724 243.759 88.8961C243.759 87.4198 244.744 86.8457 245.81 86.8457H247.778ZM251.879 63.1426V86.8457H252.658C254.381 86.8457 254.791 86.6406 255.529 85.1233L259.138 77.8238C259.589 76.8806 259.917 76.1834 259.917 75.1582C259.917 73.7639 259.466 72.9847 258.892 71.7955L255.488 64.865C254.627 63.1016 254.258 63.1426 252.371 63.1426H251.879Z" fill="#00DDFF"/>
<path d="M272.454 88.8961L280.492 61.1332C280.82 60.026 281.271 59.0417 282.584 59.0417C283.937 59.0417 284.429 60.067 284.716 61.1332L292.631 88.8961C292.918 89.8803 291.811 90.9466 290.662 90.9466C289.391 90.9466 288.735 89.8803 288.448 88.8961L286.93 83.9751H278.196L276.637 88.8961C276.35 89.8803 275.694 90.9466 274.423 90.9466C273.275 90.9466 272.167 89.8803 272.454 88.8961ZM285.782 79.8742L282.625 68.7608H282.543L279.344 79.8742H285.782Z" fill="#00DDFF"/>
<path d="M309.228 63.1426H305.25V64.6189C305.25 65.9312 304.676 66.6694 303.2 66.6694C301.723 66.6694 301.149 65.9312 301.149 64.6189V59.0417H321.408V64.6189C321.408 65.9312 320.833 66.6694 319.357 66.6694C317.881 66.6694 317.307 65.9312 317.307 64.6189V63.1426H313.329V88.8961C313.329 90.2084 312.755 90.9466 311.278 90.9466C309.802 90.9466 309.228 90.2084 309.228 88.8961V63.1426Z" fill="#00DDFF"/>
<path d="M329.844 88.8961L337.882 61.1332C338.21 60.026 338.661 59.0417 339.973 59.0417C341.327 59.0417 341.819 60.067 342.106 61.1332L350.021 88.8961C350.308 89.8803 349.2 90.9466 348.052 90.9466C346.781 90.9466 346.125 89.8803 345.838 88.8961L344.32 83.9751H335.585L334.027 88.8961C333.74 89.8803 333.084 90.9466 331.813 90.9466C330.664 90.9466 329.557 89.8803 329.844 88.8961ZM343.172 79.8742L340.014 68.7608H339.932L336.734 79.8742H343.172Z" fill="#00DDFF"/>
<path d="M405.442 90.9466H398.265C395.19 90.9466 393.426 89.7163 392.114 87.0507L388.341 79.4231C387.644 78.0288 387.234 76.7165 387.234 75.1172C387.234 73.3128 387.562 72.2056 388.382 70.5652L392.155 62.9786C393.549 60.149 395.313 59.0417 398.47 59.0417H405.442C406.344 59.0417 407.492 59.5339 407.492 61.0922C407.492 62.5685 406.385 63.1426 405.442 63.1426H398.593C396.83 63.1426 396.543 63.3067 395.764 64.865L392.196 72.0005C391.663 73.1077 391.335 73.8459 391.335 75.1172C391.335 76.2654 391.704 76.9626 392.196 77.9468L395.682 85.0413C396.502 86.7227 396.912 86.8457 398.757 86.8457H405.442C406.344 86.8457 407.492 87.3378 407.492 88.8961C407.492 90.3724 406.385 90.9466 405.442 90.9466Z" fill="#00DDFF"/>
<path d="M420.03 86.8457H434.137C435.203 86.8457 436.187 87.4198 436.187 88.8961C436.187 90.3724 435.203 90.9466 434.137 90.9466H415.929V59.0417H434.137C435.203 59.0417 436.187 59.6159 436.187 61.0922C436.187 62.5685 435.203 63.1426 434.137 63.1426H420.03V72.9437H426.058C427.124 72.9437 428.108 73.5178 428.108 74.9942C428.108 76.4705 427.124 77.0446 426.058 77.0446H420.03V86.8457Z" fill="#00DDFF"/>
<path d="M460.781 83.9341L460.822 61.1332C460.822 59.8209 461.396 59.0828 462.873 59.0828C464.349 59.0828 464.923 59.8209 464.923 61.1332V90.9876H459.51L448.807 66.3823V66.3413H448.725V88.8961C448.725 90.2084 448.151 90.9466 446.674 90.9466C445.198 90.9466 444.624 90.2084 444.624 88.8961V59.0417H450.037L460.74 83.9341H460.699H460.781Z" fill="#00DDFF"/>
<path d="M481.397 63.1426H477.42V64.6189C477.42 65.9312 476.845 66.6694 475.369 66.6694C473.893 66.6694 473.319 65.9312 473.319 64.6189V59.0417H493.577V64.6189C493.577 65.9312 493.003 66.6694 491.527 66.6694C490.05 66.6694 489.476 65.9312 489.476 64.6189V63.1426H485.498V88.8961C485.498 90.2084 484.924 90.9466 483.448 90.9466C481.972 90.9466 481.397 90.2084 481.397 88.8961V63.1426Z" fill="#00DDFF"/>
<path d="M506.115 86.8457H520.221C521.288 86.8457 522.272 87.4198 522.272 88.8961C522.272 90.3724 521.288 90.9466 520.221 90.9466H502.014V59.0417H520.221C521.288 59.0417 522.272 59.6159 522.272 61.0922C522.272 62.5685 521.288 63.1426 520.221 63.1426H506.115V72.9437H512.143C513.209 72.9437 514.193 73.5178 514.193 74.9942C514.193 76.4705 513.209 77.0446 512.143 77.0446H506.115V86.8457Z" fill="#00DDFF"/>
<path d="M534.809 73.6409V88.8961C534.809 90.2084 534.235 90.9466 532.759 90.9466C531.283 90.9466 530.709 90.2084 530.709 88.8961V59.0417H544.487C547.727 59.0417 550.967 61.3382 550.967 64.988V67.8176C550.967 71.6724 547.768 73.6409 544.487 73.6409H540.715L549.942 86.8457C550.393 87.4608 550.967 88.24 550.967 89.0191C550.967 90.1674 550.024 90.9466 548.875 90.9466C548.055 90.9466 547.522 90.4544 547.071 89.7983L535.753 73.6409H534.809ZM534.809 63.1426V69.54H543.913C545.062 69.54 546.866 69.458 546.866 67.8176V64.988C546.866 63.3477 545.185 63.1426 543.954 63.1426H534.809Z" fill="#00DDFF"/>
<path d="M18.3011 86.8457H32.4081C33.4743 86.8457 34.4585 87.4198 34.4585 88.8961C34.4585 90.3724 33.4743 90.9466 32.4081 90.9466H14.2002V61.0922C14.2002 59.7799 14.7743 59.0417 16.2506 59.0417C17.7269 59.0417 18.3011 59.7799 18.3011 61.0922V86.8457Z" stroke="#0059FF" stroke-width="2" mask="url(#path-11-outside-1_24_498)"/>
<path d="M42.8951 88.8961L50.9328 61.1332C51.2609 60.026 51.712 59.0417 53.0243 59.0417C54.3776 59.0417 54.8697 60.067 55.1567 61.1332L63.0714 88.8961C63.3585 89.8803 62.2512 90.9466 61.103 90.9466C59.8317 90.9466 59.1756 89.8803 58.8885 88.8961L57.3712 83.9751H48.6363L47.078 88.8961C46.7909 89.8803 46.1348 90.9466 44.8635 90.9466C43.7153 90.9466 42.608 89.8803 42.8951 88.8961ZM56.2229 79.8742L53.0653 68.7608H52.9833L49.7846 79.8742H56.2229Z" stroke="#0059FF" stroke-width="2" mask="url(#path-11-outside-1_24_498)"/>
<path d="M75.6909 73.6409V88.8961C75.6909 90.2084 75.1168 90.9466 73.6404 90.9466C72.1641 90.9466 71.59 90.2084 71.59 88.8961V59.0417H85.3689C88.6086 59.0417 91.8483 61.3382 91.8483 64.988V67.8176C91.8483 71.6724 88.6497 73.6409 85.3689 73.6409H81.5961L90.8231 86.8457C91.2742 87.4608 91.8483 88.24 91.8483 89.0191C91.8483 90.1674 90.9051 90.9466 89.7569 90.9466C88.9367 90.9466 88.4036 90.4544 87.9525 89.7983L76.6341 73.6409H75.6909ZM75.6909 63.1426V69.54H84.7948C85.9431 69.54 87.7475 69.458 87.7475 67.8176V64.988C87.7475 63.3477 86.0661 63.1426 84.8358 63.1426H75.6909Z" stroke="#0059FF" stroke-width="2" mask="url(#path-11-outside-1_24_498)"/>
<path d="M116.442 80.5303H112.465C111.398 80.5303 110.414 79.9562 110.414 78.4799C110.414 77.0036 111.398 76.4295 112.465 76.4295H120.543V84.5082C120.543 88.486 117.878 90.9466 113.982 90.9466H106.928C105.042 90.9466 103.648 90.6185 102.212 89.3062C100.572 87.8299 100.285 86.3126 100.285 84.2621V74.0099C100.285 71.3854 100.859 70.0321 102.417 68.0227L107.256 61.8303C108.897 59.7389 110.332 59.0417 112.998 59.0417H118.493C119.559 59.0417 120.543 59.6159 120.543 61.0922C120.543 62.5685 119.559 63.1426 118.493 63.1426H113.572C111.316 63.1426 111.48 63.1016 110.127 64.824L105.657 70.5242C104.386 72.1235 104.386 73.8459 104.386 75.8553V83.893C104.386 86.1485 104.878 86.8457 107.215 86.8457H113.736C115.212 86.8457 116.442 86.5176 116.442 84.7132V80.5303Z" stroke="#0059FF" stroke-width="2" mask="url(#path-11-outside-1_24_498)"/>
<path d="M133.081 86.8457H147.188C148.254 86.8457 149.238 87.4198 149.238 88.8961C149.238 90.3724 148.254 90.9466 147.188 90.9466H128.98V59.0417H147.188C148.254 59.0417 149.238 59.6159 149.238 61.0922C149.238 62.5685 148.254 63.1426 147.188 63.1426H133.081V72.9437H139.109C140.175 72.9437 141.159 73.5178 141.159 74.9942C141.159 76.4705 140.175 77.0446 139.109 77.0446H133.081V86.8457Z" stroke="#0059FF" stroke-width="2" mask="url(#path-11-outside-1_24_498)"/>
<path d="M162.391 64.824L176.498 82.9088C177.318 83.9751 177.933 84.9183 177.933 86.3126C177.933 89.3882 175.596 90.9466 172.766 90.9466H163.744C162.186 90.9466 160.832 90.6595 159.602 89.6343C158.495 88.7321 157.675 87.2558 157.675 85.8205C157.675 84.5082 158.413 83.3599 159.848 83.3599C161.037 83.3599 161.776 84.3441 161.776 85.4514C161.776 86.6816 162.432 86.8457 163.58 86.8457H172.479C172.807 86.8457 173.832 86.9687 173.832 86.3536C173.832 86.0255 173.258 85.4104 173.094 85.1643L159.028 67.0795C158.167 65.9722 157.675 65.1521 157.675 63.7167C157.675 62.0764 158.454 60.6821 159.848 59.7799C160.996 59.0417 161.94 59.0417 163.252 59.0417H171.946C173.504 59.0417 174.816 59.3698 176.006 60.395C177.072 61.3382 177.933 62.8556 177.933 64.2909C177.933 65.6031 177.277 66.6694 175.801 66.6694C174.57 66.6694 173.832 65.8902 173.832 64.742C173.832 63.3477 173.135 63.1426 171.864 63.1426H163.17C162.719 63.1426 161.776 63.0196 161.776 63.7167C161.776 64.0858 162.227 64.5779 162.391 64.824Z" stroke="#0059FF" stroke-width="2" mask="url(#path-11-outside-1_24_498)"/>
<path d="M194.448 63.1426H190.471V64.6189C190.471 65.9312 189.896 66.6694 188.42 66.6694C186.944 66.6694 186.37 65.9312 186.37 64.6189V59.0417H206.628V64.6189C206.628 65.9312 206.054 66.6694 204.578 66.6694C203.101 66.6694 202.527 65.9312 202.527 64.6189V63.1426H198.549V88.8961C198.549 90.2084 197.975 90.9466 196.499 90.9466C195.022 90.9466 194.448 90.2084 194.448 88.8961V63.1426Z" stroke="#0059FF" stroke-width="2" mask="url(#path-11-outside-1_24_498)"/>
<path d="M247.778 86.8457V63.1426H246.261C244.908 63.1426 243.759 62.6505 243.759 61.0922C243.759 59.6159 244.867 59.0417 246.138 59.0417H252.986C256.185 59.0417 257.784 60.354 259.179 63.1426L262.788 70.3602C263.608 72.0415 264.018 73.2308 264.018 75.1172C264.018 76.7575 263.567 78.1518 262.829 79.6281L259.097 87.0917C257.661 90.0034 255.816 90.9466 252.617 90.9466H245.81C244.744 90.9466 243.759 90.3724 243.759 88.8961C243.759 87.4198 244.744 86.8457 245.81 86.8457H247.778ZM251.879 63.1426V86.8457H252.658C254.381 86.8457 254.791 86.6406 255.529 85.1233L259.138 77.8238C259.589 76.8806 259.917 76.1834 259.917 75.1582C259.917 73.7639 259.466 72.9847 258.892 71.7955L255.488 64.865C254.627 63.1016 254.258 63.1426 252.371 63.1426H251.879Z" stroke="#0059FF" stroke-width="2" mask="url(#path-11-outside-1_24_498)"/>
<path d="M272.454 88.8961L280.492 61.1332C280.82 60.026 281.271 59.0417 282.584 59.0417C283.937 59.0417 284.429 60.067 284.716 61.1332L292.631 88.8961C292.918 89.8803 291.811 90.9466 290.662 90.9466C289.391 90.9466 288.735 89.8803 288.448 88.8961L286.93 83.9751H278.196L276.637 88.8961C276.35 89.8803 275.694 90.9466 274.423 90.9466C273.275 90.9466 272.167 89.8803 272.454 88.8961ZM285.782 79.8742L282.625 68.7608H282.543L279.344 79.8742H285.782Z" stroke="#0059FF" stroke-width="2" mask="url(#path-11-outside-1_24_498)"/>
<path d="M309.228 63.1426H305.25V64.6189C305.25 65.9312 304.676 66.6694 303.2 66.6694C301.723 66.6694 301.149 65.9312 301.149 64.6189V59.0417H321.408V64.6189C321.408 65.9312 320.833 66.6694 319.357 66.6694C317.881 66.6694 317.307 65.9312 317.307 64.6189V63.1426H313.329V88.8961C313.329 90.2084 312.755 90.9466 311.278 90.9466C309.802 90.9466 309.228 90.2084 309.228 88.8961V63.1426Z" stroke="#0059FF" stroke-width="2" mask="url(#path-11-outside-1_24_498)"/>
<path d="M329.844 88.8961L337.882 61.1332C338.21 60.026 338.661 59.0417 339.973 59.0417C341.327 59.0417 341.819 60.067 342.106 61.1332L350.021 88.8961C350.308 89.8803 349.2 90.9466 348.052 90.9466C346.781 90.9466 346.125 89.8803 345.838 88.8961L344.32 83.9751H335.585L334.027 88.8961C333.74 89.8803 333.084 90.9466 331.813 90.9466C330.664 90.9466 329.557 89.8803 329.844 88.8961ZM343.172 79.8742L340.014 68.7608H339.932L336.734 79.8742H343.172Z" stroke="#0059FF" stroke-width="2" mask="url(#path-11-outside-1_24_498)"/>
<path d="M405.442 90.9466H398.265C395.19 90.9466 393.426 89.7163 392.114 87.0507L388.341 79.4231C387.644 78.0288 387.234 76.7165 387.234 75.1172C387.234 73.3128 387.562 72.2056 388.382 70.5652L392.155 62.9786C393.549 60.149 395.313 59.0417 398.47 59.0417H405.442C406.344 59.0417 407.492 59.5339 407.492 61.0922C407.492 62.5685 406.385 63.1426 405.442 63.1426H398.593C396.83 63.1426 396.543 63.3067 395.764 64.865L392.196 72.0005C391.663 73.1077 391.335 73.8459 391.335 75.1172C391.335 76.2654 391.704 76.9626 392.196 77.9468L395.682 85.0413C396.502 86.7227 396.912 86.8457 398.757 86.8457H405.442C406.344 86.8457 407.492 87.3378 407.492 88.8961C407.492 90.3724 406.385 90.9466 405.442 90.9466Z" stroke="#0059FF" stroke-width="2" mask="url(#path-11-outside-1_24_498)"/>
<path d="M420.03 86.8457H434.137C435.203 86.8457 436.187 87.4198 436.187 88.8961C436.187 90.3724 435.203 90.9466 434.137 90.9466H415.929V59.0417H434.137C435.203 59.0417 436.187 59.6159 436.187 61.0922C436.187 62.5685 435.203 63.1426 434.137 63.1426H420.03V72.9437H426.058C427.124 72.9437 428.108 73.5178 428.108 74.9942C428.108 76.4705 427.124 77.0446 426.058 77.0446H420.03V86.8457Z" stroke="#0059FF" stroke-width="2" mask="url(#path-11-outside-1_24_498)"/>
<path d="M460.781 83.9341L460.822 61.1332C460.822 59.8209 461.396 59.0828 462.873 59.0828C464.349 59.0828 464.923 59.8209 464.923 61.1332V90.9876H459.51L448.807 66.3823V66.3413H448.725V88.8961C448.725 90.2084 448.151 90.9466 446.674 90.9466C445.198 90.9466 444.624 90.2084 444.624 88.8961V59.0417H450.037L460.74 83.9341H460.699H460.781Z" stroke="#0059FF" stroke-width="2" mask="url(#path-11-outside-1_24_498)"/>
<path d="M481.397 63.1426H477.42V64.6189C477.42 65.9312 476.845 66.6694 475.369 66.6694C473.893 66.6694 473.319 65.9312 473.319 64.6189V59.0417H493.577V64.6189C493.577 65.9312 493.003 66.6694 491.527 66.6694C490.05 66.6694 489.476 65.9312 489.476 64.6189V63.1426H485.498V88.8961C485.498 90.2084 484.924 90.9466 483.448 90.9466C481.972 90.9466 481.397 90.2084 481.397 88.8961V63.1426Z" stroke="#0059FF" stroke-width="2" mask="url(#path-11-outside-1_24_498)"/>
<path d="M506.115 86.8457H520.221C521.288 86.8457 522.272 87.4198 522.272 88.8961C522.272 90.3724 521.288 90.9466 520.221 90.9466H502.014V59.0417H520.221C521.288 59.0417 522.272 59.6159 522.272 61.0922C522.272 62.5685 521.288 63.1426 520.221 63.1426H506.115V72.9437H512.143C513.209 72.9437 514.193 73.5178 514.193 74.9942C514.193 76.4705 513.209 77.0446 512.143 77.0446H506.115V86.8457Z" stroke="#0059FF" stroke-width="2" mask="url(#path-11-outside-1_24_498)"/>
<path d="M534.809 73.6409V88.8961C534.809 90.2084 534.235 90.9466 532.759 90.9466C531.283 90.9466 530.709 90.2084 530.709 88.8961V59.0417H544.487C547.727 59.0417 550.967 61.3382 550.967 64.988V67.8176C550.967 71.6724 547.768 73.6409 544.487 73.6409H540.715L549.942 86.8457C550.393 87.4608 550.967 88.24 550.967 89.0191C550.967 90.1674 550.024 90.9466 548.875 90.9466C548.055 90.9466 547.522 90.4544 547.071 89.7983L535.753 73.6409H534.809ZM534.809 63.1426V69.54H543.913C545.062 69.54 546.866 69.458 546.866 67.8176V64.988C546.866 63.3477 545.185 63.1426 543.954 63.1426H534.809Z" stroke="#0059FF" stroke-width="2" mask="url(#path-11-outside-1_24_498)"/>
</svg>
