<svg width="162" height="45" viewBox="0 0 162 45" fill="none" xmlns="http://www.w3.org/2000/svg">
<path d="M149.749 17.5358H161.234V20.505H149.749V17.5358ZM153.664 13.1632H157.318V33.7861H153.664V13.1632ZM133.252 28.4349H136.613C136.787 29.2616 137.233 29.9358 137.951 30.4578C138.669 30.9582 139.637 31.2084 140.855 31.2084C141.638 31.2084 142.247 31.1213 142.682 30.9471C143.139 30.7728 143.455 30.5334 143.628 30.2287C143.824 29.924 143.922 29.5759 143.922 29.1845C143.922 28.7055 143.78 28.336 143.498 28.0758C143.236 27.8148 142.845 27.5972 142.324 27.423C141.683 27.2216 141.029 27.0688 140.365 26.9659C139.565 26.7716 138.771 26.5539 137.983 26.3132C137.248 26.0935 136.537 25.7984 135.863 25.4324C135.265 25.0942 134.752 24.6255 134.361 24.0613C134.013 23.4964 133.839 22.8113 133.839 22.0062C133.839 21.2663 134.002 20.6028 134.329 20.0157C134.682 19.3993 135.173 18.8738 135.765 18.481C136.373 18.0688 137.091 17.7538 137.918 17.5358C138.799 17.2885 139.711 17.1676 140.627 17.1766C142.04 17.1766 143.215 17.4049 144.151 17.8616C145.107 18.3183 145.825 18.9603 146.304 19.7877C146.804 20.6143 147.054 21.5603 147.054 22.6256H143.857C143.683 21.7553 143.346 21.1247 142.845 20.734C142.345 20.3411 141.594 20.145 140.593 20.1458C139.593 20.1458 138.832 20.32 138.309 20.6684C137.787 21.0169 137.526 21.495 137.526 22.103C137.526 22.5604 137.689 22.9307 138.016 23.2139C138.364 23.4749 138.854 23.7032 139.485 23.8989C140.217 24.1218 140.957 24.3177 141.703 24.4861C142.486 24.704 143.226 24.9324 143.922 25.1711C144.619 25.3891 145.239 25.6719 145.782 26.0196C146.347 26.3458 146.793 26.781 147.12 27.3251C147.446 27.8685 147.609 28.5428 147.609 29.3479C147.609 30.3488 147.337 31.208 146.793 31.9257C146.271 32.6433 145.51 33.1982 144.509 33.5904C143.509 33.9596 142.301 34.1442 140.887 34.1442C139.647 34.1442 138.571 34.0029 137.658 33.7205C136.765 33.438 136.014 33.0681 135.406 32.6107C134.818 32.1547 134.361 31.6654 134.034 31.1428C133.736 30.6777 133.505 30.1721 133.349 29.6415C133.24 29.1633 133.208 28.7619 133.252 28.4349ZM129.99 10.6511V14.1429H125.651V10.6511H129.99ZM125.977 17.5358H129.632V33.7861H125.977V17.5358ZM113.513 17.5358H117.135V33.7861H113.513V17.5358ZM123.007 20.6351C121.833 20.6351 120.822 20.8853 119.973 21.3857C119.146 21.8861 118.483 22.4955 117.982 23.2139C117.482 23.9315 117.135 24.6277 116.939 25.3023L116.906 23.4741C116.928 23.2346 117.004 22.8758 117.135 22.3977C117.264 21.8972 117.46 21.3534 117.722 20.7663C118.019 20.1565 118.392 19.5864 118.831 19.0693C119.312 18.5037 119.9 18.0382 120.561 17.6993C121.257 17.3508 122.073 17.1766 123.007 17.1766V20.6351ZM109.512 33.7861H105.89V17.5358H109.512V33.7861ZM106.085 26.0518L106.119 27.0972C106.074 27.3789 105.976 27.8029 105.824 28.3693C105.666 29.0127 105.436 29.6363 105.139 30.2287C104.814 30.913 104.397 31.5497 103.899 32.1214C103.371 32.7306 102.728 33.2295 102.006 33.5893C101.245 33.9599 100.321 34.1453 99.233 34.1453C98.4281 34.1419 97.6271 34.032 96.851 33.8183C96.0737 33.6253 95.3418 33.2815 94.697 32.8064C94.0669 32.3282 93.5557 31.6758 93.1635 30.8492C92.7721 30.0218 92.5763 28.9776 92.5763 27.7166V17.5358H96.1983V27.0315C96.1983 28.0539 96.3614 28.8583 96.6876 29.4447C97.036 30.0111 97.5146 30.414 98.1232 30.6535C98.7326 30.8922 99.4395 31.0115 100.244 31.0115C101.397 31.0115 102.376 30.7506 103.181 30.2287C103.957 29.737 104.615 29.0796 105.107 28.3037C105.607 27.5201 105.933 26.7695 106.085 26.0518ZM85.7573 28.4349H89.2491C89.0838 29.5226 88.6334 30.5471 87.9436 31.4041C87.2689 32.2522 86.3441 32.9265 85.169 33.4269C83.9947 33.9051 82.5917 34.1442 80.9599 34.1442C79.1102 34.1442 77.457 33.8069 76.0002 33.1322C74.5427 32.4368 73.401 31.4582 72.5751 30.1964C71.7477 28.9346 71.3341 27.4334 71.3341 25.6926C71.3341 23.9742 71.7366 22.4733 72.5417 21.19C73.3461 19.9067 74.4556 18.917 75.8701 18.2208C77.3046 17.5247 78.9579 17.1766 80.8298 17.1766C82.7648 17.1766 84.3746 17.525 85.6594 18.2219C86.9642 18.8951 87.9321 19.917 88.563 21.2878C89.1931 22.6371 89.4541 24.3448 89.3458 26.411H75.0216C75.1306 27.3251 75.4242 28.1517 75.9023 28.8909C76.4028 29.6093 77.0774 30.1749 77.9263 30.5879C78.7736 30.9793 79.7634 31.175 80.8954 31.175C82.1565 31.175 83.2114 30.9248 84.0603 30.4244C84.9299 29.9247 85.4956 29.2623 85.7573 28.4349ZM80.7308 20.1124C79.2518 20.1124 78.0338 20.4823 77.0767 21.2222C76.1203 21.9399 75.5005 22.8643 75.2173 23.9957H85.6917C85.6042 22.7769 85.1149 21.8305 84.2238 21.1566C83.3304 20.4605 82.1665 20.1124 80.732 20.1124M48.9141 21.6148H64.4461V24.7797H48.9141V21.6148ZM63.9245 12.6406H67.612V33.785H63.9234L63.9245 12.6406ZM45.6191 12.6406H49.3389V33.785H45.6191V12.6406Z" fill="white"/>
<mask id="mask0_2318_11246" style="mask-type:luminance" maskUnits="userSpaceOnUse" x="0" y="0" width="40" height="45">
<path d="M0.27002 0H39.2205V45H0.27002V0Z" fill="white"/>
</mask>
<g mask="url(#mask0_2318_11246)">
<path d="M19.7275 0V22.4744H14.8634V8.4293L9.9993 11.235L7.39378 12.7451L5.1341 14.044V30.9048L7.39378 32.2048L9.9993 33.715V22.4744H14.8634V42.1398L14.5175 41.9397L10.0049 39.3297H9.9993L6.0938 37.07L5.1341 36.5195L0.27002 33.715V11.235L5.1341 8.4293L6.0938 7.87884L9.9993 5.61916H10.0049L14.5175 3.00808L14.8634 2.80791H14.8689L19.7275 0ZM39.1916 11.235V33.715L34.3275 36.5195L33.3678 37.07L29.4623 39.3297H29.4567L24.9441 41.9408L24.5982 42.1387H24.5927L19.7275 44.9488V22.4744H24.5982V36.5195L29.4623 33.715L32.0678 32.2048L34.3275 30.9037V14.0451L32.0678 12.744L29.4623 11.2339V22.4744H24.5982V2.81014L24.9441 3.00919L29.4567 5.62027H29.4623L33.3678 7.87995L34.3275 8.43041L39.1916 11.235Z" fill="white"/>
</g>
</svg>
