<svg width="25" height="25" viewBox="0 0 25 25" fill="none" xmlns="http://www.w3.org/2000/svg">
<circle cx="12.4189" cy="12.2021" r="11.5" stroke="white"/>
<path d="M14.9282 12.4748C14.9282 15.7596 14.5939 18.7167 14.062 20.8381C13.7951 21.9024 13.4853 22.7287 13.1606 23.2766C12.8163 23.8574 12.5497 23.9748 12.4194 23.9748C12.2892 23.9748 12.0226 23.8574 11.6782 23.2766C11.3535 22.7287 11.0437 21.9024 10.7769 20.8381C10.245 18.7167 9.91064 15.7597 9.91064 12.4748C9.91064 9.18993 10.245 6.23288 10.7769 4.11151C11.0437 3.04714 11.3535 2.22085 11.6782 1.67303C12.0226 1.09216 12.2892 0.974792 12.4194 0.974792C12.5497 0.974804 12.8163 1.09219 13.1606 1.67303C13.4853 2.22085 13.7951 3.04715 14.062 4.11151C14.5939 6.23288 14.9282 9.18994 14.9282 12.4748Z" stroke="white"/>
<path d="M12.6909 14.7114C9.40606 14.7114 6.449 14.3771 4.32764 13.8452C3.26327 13.5783 2.43698 13.2685 1.88916 12.9438C1.30832 12.5995 1.19093 12.3329 1.19092 12.2026C1.19092 12.0724 1.30829 11.8058 1.88916 11.4614C2.43698 11.1367 3.26326 10.8269 4.32764 10.5601C6.449 10.0282 9.40606 9.69385 12.6909 9.69385C15.9758 9.69385 18.9328 10.0282 21.0542 10.5601C22.1186 10.8269 22.9449 11.1367 23.4927 11.4614C24.0735 11.8058 24.1909 12.0724 24.1909 12.2026C24.1909 12.3329 24.0735 12.5995 23.4927 12.9438C22.9449 13.2685 22.1186 13.5783 21.0542 13.8452C18.9328 14.3771 15.9758 14.7114 12.6909 14.7114Z" stroke="white"/>
</svg>
