<svg width="139" height="45" viewBox="0 0 139 45" fill="none" xmlns="http://www.w3.org/2000/svg">
<g clip-path="url(#clip0_2317_21102)">
<path fill-rule="evenodd" clip-rule="evenodd" d="M12.0312 11.25L24.4062 19.4062L30.0312 15.75V0L12.0312 11.25ZM12.0312 11.25V1.125L0.5 8.15625V18L12.0312 11.25ZM0.5 26.7188V36.5625L11.75 43.5938V33.6831L30.0312 45V29.25L11.75 18.2812V33.6831L0.5 26.7188Z" fill="white"/>
<path d="M132.608 20.4323C133.515 18.0601 135.713 17.0833 137.911 17.0833V22.1068C135.574 21.8277 132.608 22.8743 132.608 26.5373V34.875H128.108V17.4321H132.608V20.4323Z" fill="white"/>
<path d="M120.089 17.432H124.589V34.8749H120.089V32.8166C118.833 34.3865 116.949 35.3633 114.403 35.3633C109.763 35.3633 105.925 31.3514 105.925 26.1534C105.925 20.9555 109.763 16.9436 114.403 16.9436C116.949 16.9436 118.833 17.9204 120.089 19.4903V17.432ZM115.24 31.0724C118.031 31.0724 120.089 29.0839 120.089 26.1534C120.089 23.223 118.031 21.2345 115.24 21.2345C112.484 21.2345 110.425 23.223 110.425 26.1534C110.425 29.0839 112.484 31.0724 115.24 31.0724Z" fill="white"/>
<path d="M95.7386 22.3858C95.7386 24.9673 104.739 23.3626 104.739 29.7815C104.739 33.5492 101.46 35.3633 97.727 35.3633C94.2384 35.3633 91.6571 33.8981 90.401 31.2119L94.3081 29.0141C94.7969 30.4444 95.9827 31.2817 97.727 31.2817C99.1574 31.2817 100.135 30.7933 100.135 29.7815C100.135 27.2349 91.1339 28.6303 91.1339 22.4904C91.1339 18.9321 94.1686 16.9436 97.7619 16.9436C100.588 16.9436 103.03 18.2344 104.39 20.6415L100.553 22.7347C100.03 21.6183 99.0528 20.9555 97.7619 20.9555C96.6459 20.9555 95.7386 21.4438 95.7386 22.3858Z" fill="white"/>
<path d="M85.8993 15.3389C84.3997 15.3389 83.1436 14.083 83.1436 12.5828C83.1436 11.0828 84.3997 9.79199 85.8993 9.79199C87.4344 9.79199 88.6904 11.0828 88.6904 12.5828C88.6904 14.083 87.4344 15.3389 85.8993 15.3389ZM83.6667 34.8749V17.432H88.1673V34.8749H83.6667Z" fill="white"/>
<path d="M75.6483 17.432H80.1483V34.8749H75.6483V32.8166C74.3922 34.3865 72.5084 35.3633 69.962 35.3633C65.3219 35.3633 61.4846 31.3514 61.4846 26.1534C61.4846 20.9555 65.3219 16.9436 69.962 16.9436C72.5084 16.9436 74.3922 17.9204 75.6483 19.4903V17.432ZM70.799 31.0724C73.5901 31.0724 75.6483 29.0839 75.6483 26.1534C75.6483 23.223 73.5901 21.2345 70.799 21.2345C68.0433 21.2345 65.9846 23.223 65.9846 26.1534C65.9846 29.0839 68.0433 31.0724 70.799 31.0724Z" fill="white"/>
<path d="M62.3503 34.8752H56.8034L48.0818 23.4326V34.8752H43.2675V10.4551H48.0818V21.2348L56.4544 10.4551H62.0015L52.9658 22.3163L62.3503 34.8752Z" fill="white"/>
</g>
<defs>
<clipPath id="clip0_2317_21102">
<rect width="137.812" height="45" fill="white" transform="translate(0.5)"/>
</clipPath>
</defs>
</svg>
