<svg width="22" height="18" viewBox="0 0 22 18" fill="none" xmlns="http://www.w3.org/2000/svg">
<g opacity="0.6">
<rect x="4.5498" y="4.34698" width="13.0533" height="13.0533" rx="1.75" stroke="white" stroke-width="0.5"/>
<path d="M7.50098 2.53399V0.0447388" stroke="white"/>
<path d="M10.54 2.53399V0.0447388" stroke="white"/>
<path d="M2.68261 9.76984L0.193359 9.76984" stroke="white"/>
<path d="M2.68261 12.8094L0.193359 12.8094" stroke="white"/>
<path d="M2.68261 15.8489L0.193359 15.8489" stroke="white"/>
<path d="M2.68261 6.73029L0.193359 6.73029" stroke="white"/>
<path d="M13.5801 2.53399V0.0447388" stroke="white"/>
<path d="M16.6191 2.53399V0.0447388" stroke="white"/>
<path d="M19.4688 6.73029L21.958 6.73029" stroke="white"/>
<path d="M19.4688 9.76984L21.958 9.76984" stroke="white"/>
<path d="M19.4688 12.8094L21.958 12.8094" stroke="white"/>
<path d="M19.4688 15.8489L21.958 15.8489" stroke="white"/>
<path d="M12.1431 7.11634C11.8056 7.19877 11.089 7.47382 11.0763 8.32477C11.0748 8.42788 11.1634 8.50922 11.2653 8.49323C11.9363 8.38788 12.3158 7.71067 12.3308 7.25824C12.3341 7.15775 12.2408 7.09249 12.1431 7.11634Z" fill="white"/>
<path d="M10.136 8.77633C10.1963 8.75755 10.7358 8.9213 11.0468 9.02602C11.0787 9.03679 11.1126 9.04208 11.1457 9.03601C11.3597 8.99686 11.442 8.82152 12.1875 8.75742C12.6743 8.71556 13.0523 8.96282 13.265 9.18079C13.3591 9.27723 13.3246 9.42608 13.2195 9.51039C12.8525 9.80477 12.725 10.1184 12.7719 10.657C12.8318 11.3453 13.5805 11.6895 13.5805 11.7214C13.5805 11.7469 13.3823 12.2506 13.2188 12.5258C13.0211 12.8585 12.4836 13.4725 11.999 13.2838C11.5144 13.095 11.2072 13.0673 11.1142 13.0771C10.9741 13.097 10.6191 13.1708 10.3192 13.3071C9.94423 13.4776 8.57227 12.5828 8.57227 10.657C8.57227 8.73112 10.0567 8.80107 10.136 8.77633Z" fill="white"/>
</g>
</svg>
