<svg width="240" height="45" viewBox="0 0 240 45" fill="none" xmlns="http://www.w3.org/2000/svg">
<g clip-path="url(#clip0_2318_11190)">
<mask id="mask0_2318_11190" style="mask-type:luminance" maskUnits="userSpaceOnUse" x="0" y="0" width="239" height="45">
<path d="M238.27 0H0.77002V45H238.27V0Z" fill="white"/>
</mask>
<g mask="url(#mask0_2318_11190)">
<path fill-rule="evenodd" clip-rule="evenodd" d="M57.852 9.14526H60.878L76.073 28.9322V9.14526H79.645V35.5036H76.6191L61.424 15.7167V35.5036H57.8506V9.14526H57.852ZM155.388 9.14526H158.516L168.07 24.2536L177.624 9.14526H180.753V35.5036H177.181V16.5252L169.235 29.0919H166.907L158.961 16.5252V35.5036H155.388V9.14526ZM225.41 9.14526H221.836V35.5036H225.41V21.0035C225.959 20.4533 227.281 19.475 229.696 19.475C232.113 19.475 233.308 20.3575 233.867 21.2212C234.519 22.2272 234.698 23.5816 234.698 24.8183V35.5036H238.271V24.8183C238.271 23.3841 238.091 21.1762 236.868 19.2877C235.552 17.2555 233.241 15.9127 229.696 15.9127C227.944 15.9127 226.526 16.2741 225.41 16.7721V9.14526ZM115.428 35.148H118.946V15.9141H115.371V31.008C115.268 31.1169 115.124 31.249 114.934 31.3869C114.38 31.7832 113.318 32.3 111.443 32.3C108.93 32.3 107.705 31.4885 107.057 30.6785C106.349 29.793 106.085 28.5955 106.085 27.4922V15.9141H102.511V27.4907C102.511 29.0585 102.872 31.1561 104.263 32.8966C105.715 34.7125 108.062 35.8607 111.443 35.8607C113.068 35.8607 114.381 35.5733 115.428 35.148ZM125.374 15.9127H121.802V35.5036H125.374V22.3245C125.374 22.2185 125.506 21.5856 127.145 20.8917C128.646 20.256 130.892 19.8321 133.591 19.8321V16.2697C130.576 16.2697 127.82 16.7357 125.747 17.614C125.624 17.6662 125.498 17.7214 125.374 17.781V15.9141V15.9127ZM135.378 24.4612C135.378 19.7406 139.217 15.9127 143.952 15.9127C148.687 15.9127 152.526 19.7406 152.526 24.4612V27.3107C152.526 32.0314 148.687 35.8593 143.952 35.8593C139.217 35.8593 135.378 32.0314 135.378 27.3107V24.4612ZM143.952 19.475C141.189 19.475 138.95 21.7075 138.95 24.4612V27.3107C138.95 30.0645 141.189 32.2971 143.952 32.2971C146.714 32.2971 148.954 30.0645 148.954 27.3107V24.4612C148.954 21.7075 146.714 19.475 143.952 19.475ZM91.0758 15.9127C88.7285 15.9127 86.5297 16.6661 84.922 18.3282C83.3174 19.986 82.5019 22.3433 82.5019 25.174V26.5995C82.5019 29.0396 83.1644 31.3578 84.6468 33.0955C86.1627 34.8722 88.379 35.8593 91.0772 35.8593C95.2419 35.8593 97.5965 33.4307 98.3915 31.8471L95.1968 30.2546C94.9187 30.8077 93.7013 32.2971 91.0787 32.2971C89.3095 32.2971 88.1329 31.6816 87.3714 30.7873C86.7379 30.0441 86.2923 28.9902 86.1379 27.6664H99.654V25.1725C99.654 22.3419 98.8371 19.9845 97.2339 18.3267C95.6263 16.6646 93.4275 15.9112 91.0802 15.9112L91.0758 15.9127ZM96.0224 24.1056H86.1278C86.2952 22.548 86.8282 21.4883 87.4937 20.8002C88.2975 19.9685 89.493 19.475 91.0758 19.475C92.6586 19.475 93.8542 19.9685 94.658 20.8002C95.3234 21.4883 95.8563 22.548 96.0239 24.1056H96.0224ZM186.029 18.3282C187.637 16.6661 189.835 15.9127 192.183 15.9127C194.53 15.9127 196.729 16.6661 198.337 18.3282C199.94 19.986 200.757 22.3433 200.757 25.174V27.6678H187.242C187.396 28.9917 187.842 30.0456 188.475 30.7888C189.237 31.683 190.414 32.2985 192.183 32.2985C194.807 32.2985 196.024 30.8091 196.301 30.2561L199.497 31.8485C198.702 33.4322 196.348 35.8607 192.183 35.8607C189.487 35.8607 187.268 34.8736 185.753 33.0969C184.272 31.3593 183.61 29.0411 183.61 26.601V25.1755C183.61 22.3447 184.426 19.9873 186.029 18.3296V18.3282ZM197.13 24.1056C196.963 22.548 196.431 21.4883 195.765 20.8002C194.961 19.9685 193.766 19.475 192.183 19.475C190.6 19.475 189.406 19.9685 188.601 20.8002C187.935 21.4883 187.402 22.548 187.237 24.1056H197.13ZM214.898 16.775C212.508 15.663 209.756 15.6296 207.34 16.6835L207.035 16.8156C204.956 17.7228 203.614 19.7711 203.614 22.0327C203.614 24.666 205.466 27.1119 208.281 27.4646C209.172 27.5764 210.172 27.665 211.116 27.665C211.838 27.665 212.659 27.7332 213.459 27.8319C214.322 27.9393 215.047 28.7202 215.047 29.7857C215.047 30.7307 214.439 31.5697 213.54 31.8688L213.198 31.9821C212.065 32.3595 210.842 32.3711 209.701 32.0155L209.378 31.9138C208.177 31.5407 207.314 30.4941 207.176 29.2501L203.624 29.6435C203.919 32.2941 205.758 34.5195 208.311 35.315L208.636 35.4151C210.491 35.9943 212.484 35.9755 214.329 35.3614L214.671 35.2482C217.028 34.4643 218.618 32.2651 218.618 29.7872C218.618 27.125 216.745 24.6514 213.899 24.2986C213.023 24.1897 212.04 24.1041 211.116 24.1041C210.379 24.1041 209.538 24.033 208.725 23.9314C207.888 23.8269 207.186 23.0691 207.186 22.0341C207.186 21.1864 207.69 20.42 208.467 20.0802L208.771 19.9482C210.246 19.3051 211.928 19.3255 213.387 20.0033L213.479 20.0455C214.33 20.4417 214.924 21.2386 215.057 22.1662L215.063 22.22L218.6 21.7162L218.594 21.6625C218.289 19.5446 216.934 17.7228 214.989 16.8185L214.898 16.7764V16.775Z" fill="white"/>
<path fill-rule="evenodd" clip-rule="evenodd" d="M0.77002 0L20.5738 15.3L40.3777 0V22.2096H35.7179V9.47758L20.5738 21.1776L5.42974 9.47758V22.2096H0.77002V0Z" fill="white"/>
<path d="M27.7087 30.2866C28.0304 30.2866 28.2912 30.0266 28.2912 29.706C28.2912 29.3852 28.0304 29.1252 27.7087 29.1252C27.387 29.1252 27.1262 29.3852 27.1262 29.706C27.1262 30.0266 27.387 30.2866 27.7087 30.2866Z" fill="white"/>
<path fill-rule="evenodd" clip-rule="evenodd" d="M39.2123 27.6953C39.2123 27.4644 39.3565 27.2641 39.5371 27.1189C39.872 26.8533 40.086 26.4439 40.086 25.9838C40.086 25.1825 39.4337 24.5322 38.6299 24.5322C37.8261 24.5322 37.1737 25.1825 37.1737 25.9838C37.1737 26.1754 37.2116 26.3569 37.2785 26.5253C37.3819 26.7808 37.4023 27.0855 37.2319 27.3033L32.348 33.5627C32.1645 33.7978 31.8325 33.85 31.5544 33.7398C31.2208 33.6063 30.8554 33.5336 30.4738 33.5336C29.938 33.5336 29.4357 33.6774 29.0046 33.9299C28.7615 34.0722 28.4513 34.078 28.2343 33.8994L23.027 29.5867C22.8232 29.4169 22.7665 29.1324 22.8319 28.8754C22.8771 28.6939 22.9018 28.5038 22.9018 28.3078C22.9018 27.0246 21.8593 25.9853 20.5719 25.9853C19.2847 25.9853 18.2422 27.0246 18.2422 28.3078C18.2422 28.495 18.264 28.6765 18.3062 28.8522C18.3674 29.1063 18.3106 29.3864 18.1082 29.5548L14.74 32.3477C14.657 32.4159 14.5435 32.4304 14.4387 32.4058C14.3512 32.3839 14.2581 32.3738 14.1634 32.3738C13.9799 32.3738 13.8066 32.4159 13.6523 32.4914C13.5445 32.5436 13.4164 32.5509 13.3144 32.4855L5.53274 27.4833C5.28956 27.3265 5.20802 27.0144 5.25607 26.7299C5.27209 26.6298 5.28083 26.5267 5.28083 26.4222C5.28083 25.3799 4.43333 24.535 3.38782 24.535C2.34229 24.535 1.4948 25.3799 1.4948 26.4222C1.4948 27.1117 1.86613 27.7155 2.41947 28.045C2.63644 28.1743 2.80535 28.3891 2.80535 28.6417V39.3793C2.80535 39.6508 2.61314 39.8786 2.36268 39.9846C1.42491 40.3824 0.766724 41.3099 0.766724 42.3899C0.766724 43.8328 1.94039 45.0028 3.38782 45.0028C4.83524 45.0028 6.00891 43.8328 6.00891 42.3899C6.00891 42.1388 5.97395 41.8964 5.90697 41.667C5.83271 41.4086 5.88805 41.1198 6.09628 40.9485L13.6392 34.7341C13.7193 34.6688 13.827 34.6528 13.9276 34.6732C14.0033 34.6891 14.0833 34.6964 14.1634 34.6964C14.5945 34.6964 14.9701 34.4627 15.1725 34.1172C15.2467 33.9894 15.3866 33.9009 15.5322 33.9285L27.3577 36.1858C27.4771 36.2089 27.5601 36.3178 27.5601 36.4383C27.5601 38.0424 28.8634 39.3415 30.4724 39.3415C30.9748 39.3415 31.4481 39.2138 31.8616 38.9903C32.1018 38.8596 32.4019 38.8596 32.6116 39.0338L36.6714 42.3958C36.862 42.5525 36.9218 42.8124 36.8926 43.0563C36.8853 43.123 36.8809 43.1913 36.8809 43.2609C36.8809 44.2233 37.6629 45.0028 38.6284 45.0028C39.5938 45.0028 40.3758 44.2233 40.3758 43.2609C40.3758 42.6483 40.0583 42.1098 39.5793 41.7991C39.3725 41.6655 39.2108 41.4536 39.2108 41.2069V27.6967L39.2123 27.6953ZM19.5774 30.4069C19.3342 30.2922 19.0401 30.2922 18.8334 30.4649L15.6399 33.1127C15.5453 33.191 15.5846 33.3435 15.7055 33.3667L27.3665 35.592C27.5383 35.6254 27.7057 35.518 27.7713 35.3569C27.8295 35.2103 27.796 35.0419 27.6752 34.9417L22.2844 30.478C22.0806 30.3082 21.7893 30.3067 21.5476 30.417C21.252 30.5535 20.9215 30.6289 20.5734 30.6289C20.2254 30.6289 19.8788 30.5491 19.5774 30.4069ZM4.41441 28.0074C4.65322 27.8535 4.96484 27.8041 5.20364 27.958L12.898 32.9022C13.0204 32.9805 13.0611 33.1374 13.0305 33.2796C13.0131 33.3609 13.0028 33.4465 13.0028 33.5322C13.0028 33.5438 13.0028 33.5569 13.0028 33.5685C13.0057 33.673 12.9709 33.7775 12.8893 33.8443L5.37548 40.0354C5.16434 40.2096 4.86145 40.2067 4.61972 40.0775C4.5542 40.0427 4.48576 40.0108 4.41586 39.9803C4.1654 39.8743 3.97319 39.6449 3.97319 39.3749V28.6374C3.97319 28.3848 4.14211 28.1699 4.35907 28.0408C4.37801 28.0291 4.39694 28.0175 4.41441 28.0059V28.0074ZM33.3877 36.4354C33.3877 36.7794 33.328 37.1089 33.2173 37.4153C33.1227 37.6794 33.1736 37.9843 33.3892 38.1643L37.6004 41.651C37.6804 41.7164 37.7925 41.725 37.8858 41.68C37.9804 41.6365 38.0459 41.545 38.0459 41.442V27.5704C38.0459 27.4325 37.8726 27.3686 37.7881 27.4789C36.8839 28.6475 33.8609 32.5581 32.8037 33.9213C32.6202 34.1564 32.6538 34.4859 32.8299 34.7283C33.1795 35.2074 33.3862 35.7982 33.3862 36.4354H33.3877Z" fill="white"/>
<path d="M13.4386 38.7581C13.9206 38.7581 14.3123 38.3676 14.3123 37.8871C14.3123 37.4066 13.9206 37.0161 13.4386 37.0161C12.9567 37.0161 12.5649 37.4066 12.5649 37.8871C12.5649 38.3676 12.9567 38.7581 13.4386 38.7581Z" fill="white"/>
</g>
</g>
<defs>
<clipPath id="clip0_2318_11190">
<rect width="238.5" height="45" fill="white" transform="translate(0.77002)"/>
</clipPath>
</defs>
</svg>
