<svg width="65" height="65" viewBox="0 0 65 65" fill="none" xmlns="http://www.w3.org/2000/svg">
<g opacity="0.75">
<circle cx="32.418" cy="32.9312" r="30.5" stroke="white" stroke-width="3"/>
<rect x="21.5527" y="31.4634" width="8.74902" height="13.1999" rx="1" fill="white"/>
<rect x="33.8271" y="31.4634" width="8.74902" height="13.1999" rx="1" fill="white"/>
<rect x="21.5527" y="25.8062" width="8.74902" height="3.65518" rx="1" fill="white"/>
<rect x="33.8271" y="25.8062" width="8.74902" height="3.65518" rx="1" fill="white"/>
<path d="M25.5254 16.3022C25.589 16.2926 25.7119 16.294 25.9521 16.481C26.2073 16.6797 26.4981 17.0168 26.835 17.5024C27.1674 17.9818 27.4982 18.5358 27.8623 19.1382C28.218 19.7266 28.603 20.3569 29.0146 20.9272C29.4916 21.5881 30.102 22.31 30.8711 22.7632C29.2749 22.6797 27.6043 22.4536 26.2324 21.9644C25.3173 21.638 24.6031 21.218 24.126 20.7075C23.7121 20.2647 23.4512 19.7277 23.4062 19.0308C23.9272 17.999 24.3781 17.3118 24.7607 16.8765C25.1753 16.4048 25.4305 16.3168 25.5254 16.3022ZM38.0254 16.3921C38.1596 16.4108 38.4728 16.5236 39 17.0103C39.4859 17.4589 40.0806 18.1586 40.8066 19.1929C40.8853 19.8453 40.7212 20.3199 40.4189 20.7065C40.0574 21.1689 39.4404 21.5801 38.5752 21.9136C37.2714 22.416 35.6099 22.6658 34.0137 22.7593C34.7491 22.2851 35.2581 21.5205 35.6201 20.8413C35.9262 20.2672 36.1899 19.6359 36.4287 19.0562C36.6752 18.4578 36.8924 17.9205 37.124 17.4556C37.3601 16.9818 37.5656 16.6816 37.7441 16.5161C37.8888 16.3821 37.9581 16.3827 38.0254 16.3921Z" stroke="white" stroke-width="2"/>
</g>
</svg>
