<svg width="65" height="64" viewBox="0 0 65 64" fill="none" xmlns="http://www.w3.org/2000/svg">
<g opacity="0.75">
<circle cx="32.418" cy="32.0044" r="30.5" stroke="white" stroke-width="3"/>
<rect x="22.4297" y="43.8384" width="19.9761" height="4.21777" rx="1.5" fill="white"/>
<circle cx="32.4175" cy="22.0166" r="8.48779" stroke="white" stroke-width="3"/>
<path d="M32.418 35.5112C35.0369 35.5113 37.3396 35.9297 38.9326 36.5532C39.7338 36.8669 40.2808 37.2036 40.6016 37.5005C40.7573 37.6447 40.836 37.7577 40.873 37.8286C40.9065 37.8928 40.9053 37.9195 40.9053 37.9214C40.9053 37.9233 40.9065 37.95 40.873 38.0142C40.836 38.085 40.7573 38.1981 40.6016 38.3423C40.2808 38.6392 39.7338 38.9759 38.9326 39.2896C37.3396 39.9131 35.0369 40.3315 32.418 40.3315C29.7988 40.3315 27.4955 39.9132 25.9023 39.2896C25.1012 38.9759 24.5542 38.6392 24.2334 38.3423C24.0777 38.1981 23.999 38.085 23.9619 38.0142C23.9284 37.95 23.9297 37.9233 23.9297 37.9214C23.9297 37.9195 23.9284 37.8928 23.9619 37.8286C23.999 37.7577 24.0777 37.6447 24.2334 37.5005C24.5542 37.2036 25.1012 36.8669 25.9023 36.5532C27.4955 35.9296 29.7988 35.5112 32.418 35.5112Z" stroke="white" stroke-width="3"/>
</g>
</svg>
