<svg width="17" height="15" viewBox="0 0 17 15" fill="none" xmlns="http://www.w3.org/2000/svg">
<path d="M0.324219 1.46741C0.324219 0.915122 0.771934 0.467407 1.32422 0.467407H15.3301C15.8824 0.467407 16.3301 0.915122 16.3301 1.46741V3.45434C16.3301 4.00662 15.8824 4.45434 15.3301 4.45434H1.32422C0.771934 4.45434 0.324219 4.00662 0.324219 3.45434V1.46741Z" fill="white"/>
<path d="M0.324219 6.25159C0.324219 5.6993 0.771934 5.25159 1.32422 5.25159H15.3301C15.8824 5.25159 16.3301 5.6993 16.3301 6.25159V8.23852C16.3301 8.7908 15.8824 9.23852 15.3301 9.23852H1.32422C0.771934 9.23852 0.324219 8.7908 0.324219 8.23852V6.25159Z" fill="white"/>
<path d="M0.324219 11.0367C0.324219 10.4845 0.771934 10.0367 1.32422 10.0367H15.3301C15.8824 10.0367 16.3301 10.4845 16.3301 11.0367V13.0237C16.3301 13.576 15.8824 14.0237 15.3301 14.0237H1.32422C0.771934 14.0237 0.324219 13.576 0.324219 13.0237V11.0367Z" fill="white"/>
<path d="M1.76758 2.46054C1.76758 2.2523 1.93639 2.0835 2.14462 2.0835H2.89582C3.10406 2.0835 3.27286 2.2523 3.27286 2.46054C3.27286 2.66877 3.10406 2.83758 2.89582 2.83758H2.14462C1.93639 2.83758 1.76758 2.66877 1.76758 2.46054Z" fill="#0D0D0D"/>
<path d="M1.76758 7.24569C1.76758 7.03746 1.93639 6.86865 2.14462 6.86865H2.89582C3.10406 6.86865 3.27286 7.03746 3.27286 7.24569C3.27286 7.45393 3.10406 7.62273 2.89582 7.62273H2.14462C1.93639 7.62273 1.76758 7.45393 1.76758 7.24569Z" fill="#0D0D0D"/>
<path d="M1.76758 12.0308C1.76758 11.8226 1.93639 11.6538 2.14462 11.6538H2.89582C3.10406 11.6538 3.27286 11.8226 3.27286 12.0308C3.27286 12.2391 3.10406 12.4079 2.89582 12.4079H2.14462C1.93639 12.4079 1.76758 12.2391 1.76758 12.0308Z" fill="#0D0D0D"/>
</svg>
