<svg width="17" height="17" viewBox="0 0 17 17" fill="none" xmlns="http://www.w3.org/2000/svg">
<ellipse cx="8.12793" cy="8.44879" rx="8" ry="8" fill="white"/>
<path d="M1.7505 6.9094C7.08985 5.3953 7.89699 2.49726 8.13237 0.968458C8.1577 0.803949 8.34817 0.808061 8.37878 0.971669C9.15407 5.11523 11.3592 6.043 14.8999 6.99969C15.0703 7.04576 15.0378 7.34563 14.8622 7.36479C9.9952 7.89616 8.8778 11.9438 8.49742 15.0177C8.47523 15.197 8.1796 15.1987 8.15177 15.0202C7.3396 9.81081 5.79925 7.69637 1.79023 7.31925C1.61044 7.30234 1.57677 6.95866 1.7505 6.9094Z" fill="#191919"/>
<ellipse cx="8.12793" cy="6.75488" rx="1.56934" ry="1.57" fill="white"/>
</svg>
