<svg width="509" height="45" viewBox="0 0 509 45" fill="none" xmlns="http://www.w3.org/2000/svg">
<g clip-path="url(#clip0_2318_11212)">
<path d="M91.7532 28.8744H101.895C102.072 30.1307 102.621 31.239 103.541 32.1996C104.462 33.1602 105.683 33.8993 107.205 34.4165C108.763 34.9338 110.568 35.1924 112.622 35.1924C115.56 35.1924 117.861 34.7675 119.525 33.9178C121.224 33.0681 122.073 31.8671 122.073 30.3154C122.073 29.133 121.578 28.228 120.587 27.5998C119.631 26.9346 117.825 26.4544 115.17 26.1588L107.471 25.3275C102.125 24.7733 98.2491 23.4801 95.8419 21.448C93.4701 19.4159 92.2842 16.6448 92.2842 13.1348C92.2842 10.3638 93.063 7.99912 94.6208 6.04091C96.2138 4.08269 98.4262 2.58632 101.258 1.55179C104.126 0.517264 107.471 0 111.294 0C115.082 0 118.427 0.572686 121.33 1.71806C124.233 2.86343 126.551 4.45217 128.286 6.48429C130.021 8.51638 130.959 10.881 131.1 13.5782H120.958C120.817 12.4698 120.321 11.5276 119.471 10.7517C118.657 9.93886 117.542 9.31077 116.126 8.86738C114.746 8.38707 113.064 8.14693 111.082 8.14693C108.427 8.14693 106.303 8.55334 104.71 9.36619C103.152 10.1421 102.373 11.269 102.373 12.7469C102.373 13.8553 102.834 14.7236 103.754 15.3517C104.71 15.9798 106.391 16.4416 108.798 16.7372L116.923 17.6794C120.64 18.0858 123.613 18.7324 125.843 19.6191C128.074 20.5058 129.685 21.7251 130.676 23.2769C131.667 24.8287 132.162 26.7869 132.162 29.1515C132.162 31.9966 131.33 34.4904 129.667 36.6334C128.038 38.7394 125.737 40.3835 122.764 41.566C119.826 42.7481 116.392 43.3395 112.462 43.3395C108.391 43.3395 104.816 42.7299 101.736 41.5104C98.6917 40.2911 96.2845 38.61 94.5144 36.4672C92.7798 34.2874 91.8594 31.7562 91.7532 28.8744Z" fill="white"/>
<path d="M146.872 24.0528C146.872 26.0849 147.243 27.8584 147.987 29.3733C148.765 30.8512 149.881 31.9966 151.332 32.8092C152.783 33.5853 154.571 33.9731 156.695 33.9731C158.854 33.9731 160.66 33.5853 162.111 32.8092C163.563 31.9966 164.66 30.8512 165.403 29.3733C166.147 27.8584 166.519 26.0849 166.519 24.0528V0.886719H176.501V24.5516C176.501 28.3203 175.67 31.6085 174.006 34.4165C172.377 37.2245 170.076 39.4229 167.103 41.0117C164.129 42.5634 160.66 43.3395 156.695 43.3395C152.73 43.3395 149.261 42.5634 146.287 41.0117C143.314 39.4229 140.995 37.2245 139.331 34.4165C137.668 31.6085 136.836 28.3203 136.836 24.5516V0.886719H146.872V24.0528Z" fill="white"/>
<path d="M205.283 0.886719C208.54 0.886719 211.336 1.47788 213.673 2.6602C216.044 3.80558 217.85 5.43127 219.089 7.53727C220.363 9.64327 221 12.1003 221 14.9083C221 17.7163 220.363 20.1733 219.089 22.2793C217.85 24.3853 216.044 26.0295 213.673 27.2117C211.336 28.3571 208.54 28.93 205.283 28.93H187.866V20.4504H204.752C206.663 20.4504 208.168 19.9701 209.265 19.0095C210.363 18.0119 210.911 16.6448 210.911 14.9083C210.911 13.1717 210.363 11.8232 209.265 10.8625C208.168 9.86496 206.663 9.36618 204.752 9.36618H188.769L193.282 4.4891V42.4527H183.246V0.886719H205.283Z" fill="white"/>
<path d="M258.847 17.7902V25.5492H230.013V17.7902H258.847ZM236.81 21.6697L234.155 38.8503L229.96 33.9178H260.546V42.4527H224.119L227.199 21.6697L224.119 0.886719H260.28V9.42158H229.96L234.155 4.4891L236.81 21.6697Z" fill="white"/>
<path d="M273.561 19.1757H288.483C290.36 19.1757 291.845 18.7323 292.943 17.8456C294.039 16.9219 294.59 15.6472 294.59 14.0216C294.59 12.3959 294.039 11.1397 292.943 10.2529C291.845 9.32922 290.36 8.86736 288.483 8.86736H272.127L276.64 3.7132V42.4527H266.605V0.886719H289.809C292.784 0.886719 295.386 1.44093 297.615 2.54936C299.847 3.65779 301.581 5.1911 302.819 7.14932C304.058 9.10753 304.678 11.3983 304.678 14.0216C304.678 16.6079 304.058 18.8802 302.819 20.8384C301.581 22.7966 299.847 24.3299 297.615 25.4383C295.386 26.5097 292.784 27.0455 289.809 27.0455H273.561V19.1757ZM279.986 22.9998H291.297L305.951 42.4527H294.322L279.986 22.9998Z" fill="white"/>
<path d="M308.603 28.8744H318.744C318.921 30.1307 319.469 31.239 320.391 32.1996C321.312 33.1602 322.532 33.8993 324.054 34.4165C325.613 34.9338 327.418 35.1924 329.47 35.1924C332.408 35.1924 334.711 34.7675 336.373 33.9178C338.073 33.0681 338.923 31.8671 338.923 30.3154C338.923 29.133 338.428 28.228 337.435 27.5998C336.479 26.9346 334.674 26.4544 332.019 26.1588L324.321 25.3275C318.974 24.7733 315.099 23.4801 312.69 21.448C310.319 19.4159 309.133 16.6448 309.133 13.1348C309.133 10.3638 309.914 7.99912 311.47 6.04091C313.064 4.08269 315.276 2.58632 318.106 1.55179C320.976 0.517264 324.321 0 328.144 0C331.932 0 335.278 0.572686 338.179 1.71806C341.083 2.86343 343.401 4.45217 345.135 6.48429C346.869 8.51638 347.809 10.881 347.949 13.5782H337.808C337.665 12.4698 337.17 11.5276 336.321 10.7517C335.505 9.93886 334.391 9.31077 332.975 8.86738C331.596 8.38707 329.912 8.14693 327.932 8.14693C325.277 8.14693 323.151 8.55334 321.558 9.36619C320.001 10.1421 319.223 11.269 319.223 12.7469C319.223 13.8553 319.684 14.7236 320.602 15.3517C321.558 15.9798 323.241 16.4416 325.648 16.7372L333.771 17.6794C337.488 18.0858 340.463 18.7324 342.692 19.6191C344.923 20.5058 346.533 21.7251 347.526 23.2769C348.516 24.8287 349.011 26.7869 349.011 29.1515C349.011 31.9966 348.179 34.4904 346.517 36.6334C344.886 38.7394 342.586 40.3835 339.613 41.566C336.675 42.7481 333.242 43.3395 329.311 43.3395C325.24 43.3395 321.666 42.7299 318.585 41.5104C315.541 40.2911 313.135 38.61 311.364 36.4672C309.63 34.2874 308.709 31.7562 308.603 28.8744Z" fill="white"/>
<path d="M354.215 0.886719H364.252V42.4527H354.215V0.886719Z" fill="white"/>
<path d="M412.04 24.4407C411.968 26.9531 411.492 29.3548 410.605 31.6456C409.721 33.8993 408.448 35.9129 406.783 37.6864C405.12 39.4229 403.066 40.8084 400.623 41.8431C398.18 42.8405 395.331 43.3395 392.073 43.3395C388.96 43.3395 386.038 42.8591 383.314 41.8984C380.622 40.9378 378.25 39.5338 376.199 37.6864C374.144 35.802 372.551 33.5298 371.418 30.8697C370.285 28.1724 369.719 25.1058 369.719 21.6697C369.719 18.2336 370.285 15.1854 371.418 12.5252C372.585 9.82803 374.197 7.55577 376.251 5.70838C378.34 3.82407 380.765 2.40159 383.526 1.44095C386.321 0.480317 389.365 0 392.658 0C396.941 0 400.657 0.702003 403.81 2.10601C406.994 3.51 409.544 5.43129 411.455 7.86981C413.403 10.3083 414.642 13.1164 415.174 16.2938H405.03C404.676 14.7421 403.934 13.4119 402.801 12.3035C401.669 11.1581 400.234 10.2899 398.5 9.69872C396.801 9.10755 394.852 8.81198 392.658 8.81198C390.003 8.81198 387.721 9.31077 385.807 10.3083C383.896 11.269 382.411 12.7099 381.347 14.6312C380.286 16.5155 379.756 18.8617 379.756 21.6697C379.756 24.4777 380.304 26.8608 381.4 28.8191C382.533 30.7774 384.126 32.2552 386.181 33.2526C388.269 34.2503 390.712 34.749 393.508 34.749C396.234 34.749 398.624 34.3242 400.676 33.4744C402.764 32.6247 404.411 31.4052 405.615 29.8167C406.854 28.228 407.561 26.3251 407.738 24.1082L412.04 24.4407ZM394.675 28.6528V21.2263H415.544V42.4527H408.376L406.994 25.8263L409.014 28.6528H394.675Z" fill="white"/>
<path d="M421.863 0.886719H431.898V42.4527H421.863V0.886719ZM453.511 0.886719H463.493V42.4527H453.511V0.886719ZM427.438 16.7926H457.757V25.9925H427.438V16.7926Z" fill="white"/>
<path d="M483.336 5.48667H493.371V42.4527H483.336V5.48667ZM467.829 0.886719H508.874V10.1421H467.829V0.886719Z" fill="white"/>
<path d="M22.3114 4.59155H61.0645C70.5352 4.59155 78.2127 12.269 78.2127 21.7396V28.2379C78.2127 34.1196 73.4446 38.8875 67.5628 38.8875C65.1317 38.8875 62.774 38.0558 60.8808 36.5306L58.7992 34.8531C48.8113 26.805 34.5648 26.805 24.5768 34.8531L22.4951 36.5306C20.6021 38.0558 18.2442 38.8875 15.8131 38.8875C9.93141 38.8875 5.16339 34.1196 5.16339 28.2379V21.7396C5.16339 12.269 12.8408 4.59155 22.3114 4.59155Z" stroke="white" stroke-width="9.04333"/>
</g>
<defs>
<clipPath id="clip0_2318_11212">
<rect width="508.235" height="45" fill="white" transform="translate(0.641724)"/>
</clipPath>
</defs>
</svg>
