<svg width="213" height="45" viewBox="0 0 213 45" fill="none" xmlns="http://www.w3.org/2000/svg">
<path d="M207.425 12.9563H209.928V31.819H207.909L198.219 17.7259V31.819H195.716V12.9563H197.735L207.425 27.0225V12.9563Z" fill="white"/>
<path d="M189.848 12.9563H192.351V31.819H189.848V12.9563Z" fill="white"/>
<path fill-rule="evenodd" clip-rule="evenodd" d="M177.717 12.9563H180.559L186.483 31.819H183.865L182.525 27.5524H175.751L174.411 31.819H171.793L177.717 12.9563ZM181.785 25.1946L179.138 16.768L176.492 25.1946H181.785Z" fill="white"/>
<path d="M166.002 12.9563H168.478V31.819H166.002V23.3308H156.85V31.819H154.347V12.9563H156.85V20.9595H166.002V12.9563Z" fill="white"/>
<path fill-rule="evenodd" clip-rule="evenodd" d="M150.954 19.0983H148.539L148.521 19.0086C148.394 18.3894 148.173 17.8484 147.858 17.3836L147.858 17.3828C147.547 16.9157 147.169 16.5242 146.721 16.2075L146.721 16.2071L146.72 16.2066C146.277 15.8836 145.786 15.6412 145.244 15.4794C144.702 15.3172 144.136 15.236 143.546 15.236C142.472 15.236 141.501 15.5082 140.631 16.0516C139.769 16.5939 139.079 17.3944 138.563 18.459C138.054 19.5206 137.797 20.8287 137.797 22.3876C137.797 23.9466 138.054 25.2547 138.563 26.3163C139.079 27.3808 139.769 28.1814 140.631 28.7237C141.501 29.2671 142.472 29.5393 143.546 29.5393C144.136 29.5393 144.702 29.4581 145.244 29.2959C145.786 29.134 146.278 28.8943 146.721 28.577C147.168 28.2543 147.547 27.8597 147.858 27.3925L147.858 27.3922C148.173 26.9211 148.394 26.3797 148.521 25.7665L148.539 25.677H150.954L150.93 25.8089C150.764 26.7481 150.459 27.5908 150.016 28.3359C149.574 29.0796 149.024 29.7131 148.365 30.2356L148.365 30.236C147.707 30.7522 146.968 31.145 146.15 31.4147C145.337 31.6845 144.47 31.819 143.546 31.819C141.985 31.819 140.593 31.436 139.373 30.6679C138.154 29.8999 137.196 28.8086 136.499 27.3981C135.801 25.9858 135.454 24.3144 135.454 22.3876C135.454 20.4609 135.801 18.7895 136.499 17.3772C137.196 15.9667 138.154 14.8754 139.373 14.1074C140.593 13.3392 141.985 12.9563 143.546 12.9563C144.47 12.9563 145.337 13.0908 146.15 13.3606C146.969 13.6303 147.707 14.0262 148.365 14.5484C149.023 15.065 149.574 15.6956 150.016 16.4392C150.459 17.1786 150.764 18.0215 150.93 18.9665L150.954 19.0983Z" fill="white"/>
<path d="M121.592 12.9563H124.688V31.819H122.265L113.382 19.0193V31.819H110.287V12.9563H112.709L121.592 25.756V12.9563Z" fill="white"/>
<path fill-rule="evenodd" clip-rule="evenodd" d="M91.401 31.9312L97.1617 13.0686H100.853L106.614 31.9312H103.366L102.2 28.1138H95.8149L94.6494 31.9312H91.401ZM101.308 25.1946L99.0076 17.6607L96.7065 25.1946H101.308Z" fill="white"/>
<path d="M73.5791 31.819L67.9338 12.9563H71.0989L75.0035 26.003L78.1545 12.9563H81.2765L84.4274 26.003L88.3321 12.9563H91.4971L85.8519 31.819H82.6869L82.7014 31.771L79.7155 19.4082L76.7296 31.771L76.7441 31.819H73.5791Z" fill="white"/>
<path d="M59.3861 31.819C57.6368 31.819 56.1469 31.4206 54.9173 30.6238C53.7049 29.827 52.8559 28.7358 52.3708 27.3501L54.9432 25.8432C55.6706 27.8871 57.1776 28.909 59.4642 28.909C60.5898 28.909 61.43 28.6925 61.9844 28.2595C62.5559 27.8092 62.8417 27.2289 62.8417 26.5187C62.8417 25.7739 62.5384 25.211 61.9322 24.8299C61.3259 24.4315 60.2522 23.9985 58.7105 23.5308C57.8444 23.271 57.1429 23.0285 56.6061 22.8033C56.0692 22.5782 55.4977 22.2664 54.8914 21.868C54.3023 21.4523 53.8607 20.9413 53.5662 20.3351C53.2716 19.7288 53.1246 19.0187 53.1246 18.2046C53.1246 16.5937 53.6961 15.3206 54.8392 14.3853C55.9823 13.4326 57.3594 12.9563 58.9704 12.9563C60.4256 12.9563 61.6986 13.3114 62.7899 14.0215C63.8812 14.7317 64.721 15.7104 65.3101 16.9575L62.7899 18.4125C62.0274 16.715 60.7544 15.8663 58.9704 15.8663C58.1043 15.8663 57.4116 16.0741 56.8919 16.4898C56.3721 16.8882 56.1122 17.4338 56.1122 18.1266C56.1122 18.8022 56.3721 19.3391 56.8919 19.7375C57.4287 20.1186 58.3901 20.5256 59.7759 20.9587C60.4686 21.1838 60.9708 21.357 61.2829 21.4783C61.6117 21.5822 62.0621 21.7554 62.6341 21.9979C63.2227 22.2404 63.6644 22.4829 63.9589 22.7254C64.2535 22.9679 64.5651 23.271 64.8944 23.6347C65.2407 23.9985 65.483 24.4142 65.6217 24.8819C65.7605 25.3495 65.8298 25.8778 65.8298 26.4668C65.8298 28.1122 65.2319 29.42 64.037 30.39C62.8588 31.3427 61.3088 31.819 59.3861 31.819Z" fill="white"/>
<path fill-rule="evenodd" clip-rule="evenodd" d="M22.4233 2.17773L3.6864 12.9696L32.1949 29.435L22.4226 35.0557V30.7313L3.69015 19.9569L3.68904 32.0032L22.4217 42.8223L41.1555 32.0018L12.7226 15.5801L22.4226 9.99294V14.2359L41.1552 25.0895V12.9963L22.4233 2.17773ZM22.4226 37.6615L34.4554 30.7405L36.6392 32.0018L22.4226 40.2133V37.6615ZM22.4226 7.38623V4.78573L22.4218 4.78529L8.2074 12.9723L10.4629 14.275L22.4226 7.38623ZM20.1657 32.0389V38.9108L10.4608 33.3058V26.457L20.1657 32.0389ZM8.20385 25.1589L5.94673 23.8606L5.94611 30.6983L8.20385 32.0023V25.1589ZM24.6795 12.933V6.08923L38.8982 14.3013V21.1713L24.6795 12.933Z" fill="white"/>
</svg>
