<svg width="21" height="21" viewBox="0 0 21 21" fill="none" xmlns="http://www.w3.org/2000/svg">
<g opacity="0.6">
<rect x="1.01465" y="1.09753" width="19.5" height="19.5" rx="1.75" stroke="white" stroke-width="0.5"/>
<circle cx="10.7646" cy="10.8475" r="5.5" stroke="white"/>
<path d="M10.0494 10.3421L8.86508 8.48507C8.83002 8.4301 8.81783 8.36362 8.83109 8.29979L9.12536 6.88328C9.14293 6.7987 9.20293 6.72918 9.28403 6.69943L9.51238 6.61566C9.65219 6.56437 9.80557 6.64593 9.84121 6.79052L10.6404 10.0322C10.6632 10.1247 10.6314 10.2221 10.5585 10.2834L10.4211 10.399C10.3055 10.4962 10.1306 10.4695 10.0494 10.3421Z" fill="white"/>
<path d="M11.0382 10.1696L12.623 8.64C12.6699 8.59472 12.7326 8.56956 12.7978 8.56988L14.2445 8.57693C14.3309 8.57736 14.411 8.62235 14.4562 8.69593L14.5837 8.90308C14.6617 9.02993 14.6123 9.19644 14.4776 9.2601L11.4593 10.6872C11.3732 10.7279 11.2714 10.7162 11.1969 10.6569L11.0563 10.5452C10.938 10.4511 10.9295 10.2745 11.0382 10.1696Z" fill="white"/>
<path d="M11.6172 10.9895L13.7188 11.6488C13.781 11.6683 13.8331 11.7113 13.864 11.7687L14.5503 13.0423C14.5913 13.1184 14.5901 13.2102 14.5472 13.2851L14.4263 13.4962C14.3523 13.6254 14.1824 13.6617 14.0621 13.574L11.3643 11.607C11.2873 11.5508 11.249 11.4559 11.2653 11.362L11.2961 11.1851C11.3221 11.0363 11.4731 10.9443 11.6172 10.9895Z" fill="white"/>
<path d="M10.989 11.7164L10.9382 13.9184C10.9367 13.9835 10.9098 14.0456 10.8632 14.0912L9.82985 15.1037C9.76814 15.1641 9.67959 15.1885 9.59566 15.168L9.35936 15.1104C9.21467 15.0751 9.13272 14.9219 9.18366 14.782L10.3256 11.6446C10.3582 11.5551 10.4388 11.4919 10.5335 11.4816L10.712 11.4622C10.8622 11.4458 10.9925 11.5654 10.989 11.7164Z" fill="white"/>
<path d="M10.0681 11.4033L7.96391 12.0539C7.90163 12.0732 7.83429 12.0673 7.77624 12.0377L6.48812 11.379C6.41121 11.3397 6.36005 11.2634 6.35282 11.1773L6.33246 10.935C6.32 10.7866 6.43924 10.6602 6.58812 10.6641L9.9257 10.7514C10.0209 10.7538 10.1064 10.8102 10.1463 10.8967L10.2214 11.0599C10.2845 11.1971 10.2125 11.3586 10.0681 11.4033Z" fill="white"/>
</g>
</svg>
