<svg width="21" height="21" viewBox="0 0 21 21" fill="none" xmlns="http://www.w3.org/2000/svg">
<g opacity="0.6">
<rect x="1.0752" y="0.972534" width="19.5" height="19.5" rx="1.75" stroke="white" stroke-width="0.5"/>
<path d="M15.6921 12.9129V16.3586C15.6921 16.4967 15.5802 16.6086 15.4421 16.6086H5.64553C5.50745 16.6086 5.39552 16.4966 5.39553 16.3586L5.39633 5.08647C5.39634 4.9484 5.50826 4.83649 5.64633 4.83649H15.4421C15.5802 4.83649 15.6921 4.94842 15.6921 5.08649V6.09759" stroke="white"/>
<path d="M7.97494 13.404L16.5194 7.92166" stroke="white"/>
<path d="M17.2982 7.35528C17.4905 7.34683 17.6198 7.54967 17.531 7.72041L15.7462 11.1515C15.6574 11.3222 15.4171 11.3328 15.3136 11.1705L13.2346 7.90932C13.1312 7.74704 13.2422 7.53363 13.4344 7.52517L17.2982 7.35528Z" fill="white"/>
</g>
</svg>
